<?xml version="1.0" encoding="UTF-8" standalone="no"?>
<svg xmlns:dc="http://purl.org/dc/elements/1.1/" xmlns:cc="http://creativecommons.org/ns#" xmlns:rdf="http://www.w3.org/1999/02/22-rdf-syntax-ns#" xmlns:svg="http://www.w3.org/2000/svg" xmlns="http://www.w3.org/2000/svg" xmlns:xlink="http://www.w3.org/1999/xlink" xmlns:sodipodi="http://sodipodi.sourceforge.net/DTD/sodipodi-0.dtd" xmlns:inkscape="http://www.inkscape.org/namespaces/inkscape" id="svg59" zoomAndPan="maginfy" preserveAspectRatio="xMidYMid" xml:space="preserve" height="400" width="400" y="0" x="0" viewBox="0 0 400 400" version="1.1" sodipodi:docname="utcZoom-logo_400x400---master.svg" inkscape:version="0.92.4 (5da689c313, 2019-01-14)" inkscape:export-filename="/home/mzhukov/Изображения/logos/utcZoom/utcZoom-logo_400x400.png" inkscape:export-xdpi="96" inkscape:export-ydpi="96"><sodipodi:namedview pagecolor="#ffffff" bordercolor="#666666" borderopacity="1" objecttolerance="10" gridtolerance="10" guidetolerance="10" inkscape:pageopacity="0" inkscape:pageshadow="2" inkscape:window-width="1920" inkscape:window-height="851" id="namedview35" showgrid="false" inkscape:pagecheckerboard="true" inkscape:zoom="1.5" inkscape:cx="-23.68809" inkscape:cy="195.13653" inkscape:window-x="0" inkscape:window-y="0" inkscape:window-maximized="1" inkscape:current-layer="svg59" /><metadata id="metadata63"><rdf:RDF><cc:Work rdf:about=""><dc:format>image/svg+xml</dc:format><dc:type rdf:resource="http://purl.org/dc/dcmitype/StillImage" /><dc:title /></cc:Work></rdf:RDF></metadata>

 <defs id="defs27">
  <filter style="color-interpolation-filters:sRGB" id="filterOne">
   <feColorMatrix id="feColorMatrix2" values=" 1.00000  0.00000  0.00000  0.00000  0.00000      0.00000  1.00000  0.00000  0.00000  0.00000      0.00000  0.00000  1.00000  0.00000  0.00000     -0.42500 -1.43080 -0.14420  1.00000  0.00000" type="matrix" result="colormatrix" in="SourceGraphic" />
   <feComposite k4="0" k3="0" k1="0" id="feComposite4" operator="arithmetic" k2="1" result="fbSourceGraphic" in2="colormatrix" />
   <feColorMatrix id="feColorMatrix6" values=" 0.00000  0.00000  0.00000 -1.00000  0.00000      0.00000  0.00000  0.00000 -1.00000  0.00000      0.00000  0.00000  0.00000 -1.00000  0.00000      0.00000  0.00000  0.00000  1.00000  0.00000" type="matrix" result="fbSourceGraphicAlpha" in="fbSourceGraphic" />
   <feColorMatrix id="feColorMatrix8" values=" 6.94700  0.00000  0.00000 -2.78145 -2.97350      0.00000  6.94700  0.00000 -2.78145 -2.97350      0.00000  0.00000  6.94700 -2.78145 -2.97350      0.00000  0.00000  0.00000  1.00000  0.00000" type="matrix" result="filterOneResult" in="fbSourceGraphic" />
  </filter>
  <filter height="1.2" width="1.2" y="-0.15000001" x="-0.15000001" style="color-interpolation-filters:sRGB" id="filterTwo">
   <feTurbulence id="feTurbulence11" seed="421" numOctaves="10" baseFrequency="0.002 0.737" type="fractalNoise" result="filterTwo-TurbulenceResult" />
   <feColorMatrix id="feColorMatrix13" values="2.00000  0.00000  0.00000  0.00000  0.00000      0.00000  0.00000  0.00000  0.00000  0.00000      0.00000  0.00000  0.00000  0.00000  0.00000      0.00000  0.00000  0.00000  0.50000 0.50000" type="matrix" result="filterTwo-ColorMatrixResult" in="filterTwo-TurbulenceResult" />
   <feDisplacementMap yChannelSelector="A" id="feDisplacementMap15" xChannelSelector="R" scale="35.618729" result="filterTwoResult" in2="filterTwo-ColorMatrixResult" in="SourceGraphic" />
  </filter>
  <filter style="color-interpolation-filters:sRGB" id="filterThree">
   <feColorMatrix id="feColorMatrix18" values=" 1.00000  0.00000  0.00000   0.00000  0.00000      0.0000  1.00000  0.0000  0.00000  0.00000      0.00000  0.00000  1.00000  0.00000  0.00000     -0.42500 -1.43080 -0.14420  1.00000  0.00000" type="matrix" result="colormatrix" in="SourceGraphic" />
   <feComposite k4="0" k3="0" k1="0" id="feComposite20" operator="arithmetic" k2="1" result="fbSourceGraphic" in2="colormatrix" />
   <feColorMatrix id="feColorMatrix22" values=" 0.00000  0.00000  0.00000  -1.00000  0.00000      0.0000  0.00000  0.0000 -1.00000  0.00000      0.00000  0.00000  0.00000 -1.00000  0.00000      0.00000  0.00000  0.00000  1.00000  0.00000" type="matrix" result="fbSourceGraphicAlpha" in="fbSourceGraphic" />
   <feColorMatrix id="feColorMatrix24" values=" 6.94700  0.00000  0.00000  -2.78145 -2.97350      0.0000  6.94700  0.0000 -2.78145 -2.97350      0.00000  0.00000  6.94700 -2.78145 -2.97350      0.00000  0.00000  0.00000  1.00000  0.00000" type="matrix" result="filterThreeResult" in="fbSourceGraphic" />
  </filter>
 <clipPath clipPathUnits="userSpaceOnUse" id="clipPath874"><rect y="17.198849" x="0.29633477" height="495.40329" width="495.40329" id="rect876" style="fill:none;fill-rule:evenodd;stroke:none;stroke-width:0.62458467" /></clipPath><inkscape:path-effect steps="14" equidistant_spacing="true" trajectory="m 127.6484,128.31624 -20.09273,-0.35801" is_visible="true" id="path-effect861" effect="interpolate" /><linearGradient id="linearGradient829" inkscape:collect="always"><stop id="stop825" offset="0" style="stop-color:#57a3ff;stop-opacity:1" /><stop id="stop827" offset="1" style="stop-color:#3c82fb;stop-opacity:1" /></linearGradient><linearGradient gradientTransform="matrix(0.99885241,0,0,0.99921848,0.11469361,0.08836139)" gradientUnits="userSpaceOnUse" y2="248.05353" x2="124.99337" y1="7.9094586" x1="124.99337" id="linearGradient831" xlink:href="#linearGradient829" inkscape:collect="always" /></defs>

 


 <g id="g1074" inkscape:label="utcZoom logo" transform="matrix(0.95,0,0,0.95,9.9999997,20.000012)"><g style="opacity:0.9" id="g952" inkscape:label="Zoom logo" transform="translate(147.5,-3.0000058)"><path style="fill:url(#linearGradient831);stroke-width:0.99903548" d="m 93.007969,247.89454 c -17.58298,0.2402 -36.119499,-2.44132 -50.539215,-13.22993 -14.144471,-9.54539 -26.5941,-23.29329 -30.33492,-40.39595 -6.929009,-20.00976 -3.8281865,-41.37779 -4.5277473,-62.11883 0.1168048,-20.66324 -0.2373013,-41.34275 0.1837514,-61.995505 3.1544939,-15.198385 13.2912469,-27.905107 22.9663549,-39.57508 12.070124,-10.854183 26.495684,-19.59899 42.883559,-21.6590395 15.863246,-1.6800341 31.929108,-0.4714854 47.882508,-0.8380963 20.42761,0.1286071 40.89014,-0.2571646 61.29593,0.1927529 13.38658,3.2616399 26.69847,9.0489009 37.12869,18.1128819 10.58867,7.853097 17.65632,19.571606 22.9237,31.471527 2.44964,8.017425 5.36714,15.984549 4.46009,24.489445 -0.11374,33.848514 0.2276,67.723604 -0.17087,101.555474 -3.45299,16.85536 -12.19056,32.70129 -25.01667,44.16528 -10.24321,9.17261 -22.94175,15.87871 -36.5779,18.08745 -15.83162,3.11684 -32.05657,1.21634 -48.08594,1.73762 -14.82378,0 -29.64755,0 -44.471321,0 z" id="path1142" inkscape:connector-curvature="0" /><g id="g1172" inkscape:label="Inner one"><path inkscape:label="Inner one - base " inkscape:connector-curvature="0" id="path1140" d="m 157.1326,166.02125 2.97875,-2.97875 -0.30568,-29.27125 -0.30567,-29.27125 -1.86416,-3.5 -1.86416,-3.5 -2.63584,-2.841583 -2.63584,-2.841583 -4,-2.158417 -4,-2.658417 h -81.247277 l -3.126362,2.547128 -3.126361,2.630659 v 57.322213 l 2.351372,5.00728 2.331772,5.00728 3.572689,3.13686 3.572688,3.13686 3.335771,1.0407 3.33577,1.04069 2,0.44917 2,0.68116 h 76.653848 l 2.97875,-2.97875 z" style="fill:#fffeff" /><g id="g846" inkscape:label="Inner one - corners"><path inkscape:label="Inner one: top-left corner" inkscape:connector-curvature="0" id="path828" d="m 61.252723,87 a 9.4480418,9.2387232 0 0 0 -6.252723,5.177787 h 6.252723 z" style="fill:#ffffff;stroke-width:0.49172613;stroke-linejoin:round;stroke-opacity:0.28354432;paint-order:fill markers stroke" /><path inkscape:connector-curvature="0" inkscape:label="Inner one: top-right corner" id="path830" d="m 142.5,87 v 17.5 h 17 a 19.131027,19.680131 0 0 0 -17,-17.5 z" style="fill:#ffffff;stroke-width:1.80002308;stroke-linejoin:round;stroke-opacity:0.19095477;paint-order:fill markers stroke" /><path style="fill:#ffffff;fill-opacity:0.93969852;stroke-width:2.18596792;stroke-linejoin:round;stroke-opacity:0.19095477;paint-order:fill markers stroke" d="m 77.500062,169 v -19.5 h -22.500062 a 25.320546,21.929293 0 0 0 22.500062,19.5 z" id="path838" inkscape:label="Inner one: bottom-left corner" inkscape:connector-curvature="0" /><path style="opacity:0.98000004;fill:#ffffff;stroke-width:0.5148474;stroke-linejoin:round;stroke-opacity:0.28354432;paint-order:fill markers stroke" d="m 154.15391,169 a 9.0018651,10.629963 0 0 0 5.95744,-5.9575 h -5.95744 z" id="path840" inkscape:connector-curvature="0" inkscape:label="Inner one: bottom-right corner" /></g></g><g id="g1164" inkscape:label="Inner two"><path inkscape:label="Inner two - base" inkscape:connector-curvature="0" id="path817" d="m 199.42857,166.42857 1.57143,-1.57143 v -74.900018 l -2.42626,-1.105477 -2.42626,-1.105477 -2.32374,0.629892 -2.32374,0.629892 -11.5,9.783649 -11.5,9.783649 -1.19356,3.46337 -1.19356,3.46338 -0.0564,12.22976 -0.0564,12.22977 1.14311,4.18468 1.2358,2.70204 24.80799,21.15375 h 2.33512 2.33512 l 1.57143,-1.57143 z" style="fill:#fffeff" /><g id="g905" inkscape:label="Inner two - corners"><path inkscape:label="Inner two: top-right corner" inkscape:connector-curvature="0" id="path848" d="m 195.89404,87.062593 a 5.9754315,5.9999959 0 0 0 -4.39404,1.943358 h 4.87838 v 0.951171 h 4.62162 a 5.9754315,5.9999959 0 0 0 -5.10596,-2.894529 z" style="opacity:0.98000004;fill:#ffffff;fill-opacity:0.9748744;stroke-width:0.93924725;stroke-linejoin:round;stroke-opacity:0.19095477;paint-order:fill markers stroke" /><path inkscape:connector-curvature="0" inkscape:label="Inner two: bottom-right corner" id="path858" d="m 193.18164,164.85714 v 3.13672 a 4.7135651,4.7065001 0 0 0 3.12382,1.1875 4.7135651,4.7065001 0 0 0 4.69454,-4.32422 z" style="opacity:0.98000004;fill:#ffffff;fill-opacity:0.97989951;stroke-width:1.16476321;stroke-linejoin:round;stroke-opacity:0.19095477;paint-order:fill markers stroke" /><path inkscape:label="Inner two: bottom-left corner" inkscape:connector-curvature="0" id="path889" d="m 168.37899,146.84625 a 12.43909,12.462757 0 0 1 -2.37891,-6.88672 h 2.37891 z" style="opacity:0.98000004;fill:#ffffff;stroke-width:0.99905002;stroke-linejoin:round;stroke-opacity:0.19095477;paint-order:fill markers stroke" /><path style="opacity:0.98000004;fill:#ffffff;stroke-width:1.00367677;stroke-linejoin:round;stroke-opacity:0.19095477;paint-order:fill markers stroke" d="m 168.5,108.57325 a 12.482019,12.535198 0 0 0 -2.38712,6.92675 h 2.38712 z" id="path899" inkscape:connector-curvature="0" inkscape:label="Inner two: top-left corner" /></g></g></g><g inkscape:label="UTC logo" clip-path="url(#clipPath874)" id="g885" transform="matrix(0.80742298,0,0,0.80742298,-0.23926749,-13.886759)"><rect style="fill:none;fill-rule:evenodd;stroke-width:0.62458467" id="rect848-6" width="495.40329" height="495.40329" x="0.29633477" y="17.198856" /><g id="g41" transform="translate(-24)" style="filter:url(#filterOne)">
  <path inkscape:connector-curvature="0" id="path29" d="m 171.68,21.445 c -2.1298,8.3745 -5.7884,16.389 -7.0132,24.892 -7.1158,6.1069 -16.053,10.094 -24.195,14.876 -8.7274,4.8299 13.185,1.0318 17.052,2.118 8.6663,2.8278 2.502,24.516 -7.7295,15.935 -4.2818,-3.2333 -11.429,-9.5079 -9.4244,0.06671 5.7327,8.6557 0.20277,19.976 -10.379,19.327 -9.5388,2.4382 -22.73,-2.4358 -23.41,11.842 4.8e-4,8.6905 -5.62,16.653 -6.8,25.254 -6.8013,7.2048 -11.332,15.676 -10.309,25.724 -1.7863,8.2388 -12.091,15.333 -3.9921,22.934 3.1043,12.086 1.3795,24.795 1.9373,37.166 0.09184,11.093 -1.6779,22.486 -7.7083,32.001 -4.3205,9.8083 -8.265,20.943 -3.4777,31.372 4.0212,9.5868 2.0945,20.012 3.652,29.971 4.5528,9.927 1.6484,21.763 2.7692,32.534 0.81522,11.693 -0.55892,24.19 3.618,35.226 1.4434,5.5657 4.6235,11.637 8.5994,4.5568 2.5491,0.38834 5.9276,8.7145 5.3303,1.4049 -4.3328,-10.614 -8.1738,-21.795 -6.1392,-33.358 5.935,-7.6239 7.201,10.412 9.6892,14.833 3.5927,3.5647 2.8147,-12.485 3.0836,-16.761 2.8349,-8.0562 -2.2998,-15.867 -0.11283,-24.469 -0.006,-5.105 4.279,-20.833 8.5744,-9.8168 5.0526,6.2988 4.0397,15.102 4.2579,22.93 -0.78416,30.446 -0.92846,61.059 -5.9345,91.188 -1.5479,5.7411 -11.176,-2.6084 -8.3335,6.4589 0.2482,15.534 0.17387,31.168 -2.3501,46.539 -5.6412,2.9162 0.17678,-10.55 -8.1205,-8.2421 -6.1434,3.331 7.8123,12.451 1.5466,18.957 0.06089,10.84 -22.547,4.1689 -12.138,13.357 6.7257,3.5018 15.634,0.59386 23.298,1.5427 44.52,2.5e-4 89.04,-0.002 133.56,0.002 -6.1707,-9.5786 7.2002,-18.292 1.3962,-28.619 -2.811,-8.4227 12.481,-17.195 2.0672,-20.54 -4.4128,-8.9437 16.693,-9.2686 5.636,-17.003 -4.9935,-10.582 3.2766,-19.144 0.67457,-30.227 -0.0401,-12.663 -3.0274,-25.208 -0.38174,-38.095 -0.16824,-4.1083 1.7606,-12.53 4.4442,-4.675 -0.6031,6.3787 1.8331,12.625 8.2606,7.1171 5.1295,0.35129 -5.5074,15.216 4.9547,9.6362 11.997,3.2877 -5.2289,17.4 3.6386,23.772 4.4974,9.7261 9.7824,-7.5855 12.76,-11.583 4.259,-12.506 7.1778,-26.143 4.538,-39.36 0.36599,-8.0429 6.6894,-12.55 4.8683,-20.97 1.1885,-12.405 11.507,-20.033 16.637,-30.563 5.8031,-6.7958 -10.616,-4.4492 -7.2312,-13.606 0.0875,-7.8732 -7.9945,-15.571 -4.7128,-24.357 -2.1242,-9.3131 -5.9354,-16.99 -9.801,-25.356 -3.8781,-9.944 -0.28432,-20.01 0.87502,-29.927 0.97047,-18.268 -1.3617,-36.7 1.7121,-54.823 0.16083,-18.994 -0.47934,-38.315 3.7623,-56.964 -5.6812,7.2856 -7.198,16.935 -10.282,25.49 -4.3024,15.216 -4.6637,31.182 -6.3495,46.736 -7.8075,6.6004 -7.5111,-9.0706 -6.5584,-13.827 0.15976,-9.4974 -3.8697,-0.78852 -3.6463,3.6734 -10.906,0.0331 -3.7776,-13.68 -0.18968,-18.521 -2.4888,-1.0141 -7.9422,-3.4522 -2.7934,-7.8391 3.6447,-3.6049 9.8966,-5.1762 2.1965,-7.3866 -7.6983,-2.9736 -9.0731,-12.433 -5.9656,-19.244 2.4218,-4.7659 4.8996,-12.231 -3.5821,-9.0114 -4.865,-3.335 -9.1501,3.093 -15.075,-1.4041 -7.0219,-4.8626 -19.767,-5.3024 -21.193,-15.483 2.4648,-6.2211 -0.36145,-11.899 -7.4619,-7.7787 -8.3846,-0.0022 -4.6898,-13.798 -2.3066,-19.024 1.9904,-5.9961 21.103,4.3486 15.282,-4.7881 -8.2483,-4.3434 -18.378,-9.7464 -18.958,-20.385 2.4231,-9.2871 -3.554,-16.709 -13.104,-14.541 -7.829,-0.51082 -15.685,-0.34927 -23.513,-0.88608 z m 102.2,321.4 c 5.6837,3.0721 -3.3466,12.123 -0.83146,1.8774 0,0 0.24559,-0.9717 0.24559,-0.9717 0,0 0.58587,-0.9057 0.58587,-0.9057 z m -2.7773,22.348 c 7.3433,5.6054 -9.3562,19.458 -5.6637,6.0925 0.85286,-2.8636 2.9664,-4.9551 5.6637,-6.0925 z" style="fill:#5f5f5f;stroke-width:1.29960001" />
  <path inkscape:connector-curvature="0" id="path31" d="m 172.62,22.83 c -1.6744,1.3561 -1.5172,6.5692 -3.4284,9.0501 -3.4426,6.377 -0.65787,16.924 -9.5818,19.498 -6.6613,3.8403 -14.029,7.1276 -20.422,10.987 -1.8591,3.2605 4.7624,0.16059 6.894,1.002 4.9774,1.3313 16.152,-4.3825 15.302,3.6063 0.33388,5.2927 2.6733,11.262 -3.0435,14.579 -6.0796,1.7179 -10.665,-2.865 -15.446,-5.4572 -4.7815,1.0756 -0.33923,5.0747 -0.63487,8.5744 1.2634,5.9813 -1.1237,13.696 -8.4394,13.537 -7.5286,2.516 -15.32,3.243 -23.225,2.911 1.6438,5.3357 -4.1179,5.9944 -2.5997,9.6334 3.3426,3.0789 -0.18181,5.7375 -0.65039,8.56 -4.9903,2.4281 -4.0052,9.5721 -6.2302,14.243 -2.2236,6.4657 -9.2109,11.114 -6.7142,18.673 -1.8108,7.3911 -0.48281,4.6076 -0.31751,12.653 -0.30835,5.5406 -3.639,11.888 -4.8823,15.039 -0.44365,4.2815 -2.4108,3.2838 -1.4224,12.053 -1.0183,19.504 2.1901,40.007 -4.9023,58.625 0.82572,4.7075 2.7944,8.9523 0.52148,13.564 -2.9832,4.6966 -1.2875,12.647 -2.7202,18.595 -1.0039,9.7472 0.33183,19.708 -0.10398,29.478 3.3824,10.37 1.6211,22.067 2.9879,32.949 1.2997,11.81 -0.01374,24.175 2.337,35.655 2.7601,2.3897 2.2877,10.355 6.5014,8.7959 -0.42184,-5.1827 7.7676,-1.7587 7.7208,1.9119 0.4513,-2.9997 -3.3249,-10.064 -4.4244,-14.459 -3.26,-7.5762 -3.2079,-16.361 -1.9018,-24.362 5.1019,-2.7827 7.1503,5.1678 7.8926,8.9651 2.6512,4.4772 2.2355,8.1861 3.5079,8.8049 0.48829,-5.4637 -0.42528,-13.968 1.639,-20.106 3.1305,-3.4699 -3.3459,-6.8097 -1.839,-11.214 -0.70076,-7.5439 2.235,-14.567 2.794,-22.003 0.8388,-3.6418 7.604,-6.9544 8.0042,-1.7779 -0.72787,3.8779 5.5979,5.2103 3.9421,9.8234 -1.0888,35.043 0.15542,70.367 -4.8579,105.12 0.58576,6.3487 -5.912,7.0512 -4.5617,13.138 -0.67433,5.1368 -3.434,8.4085 -2.6083,14.189 -0.47023,6.6084 -0.90843,13.797 -2.2712,19.867 0.11705,5.2879 -0.78561,11.56 -6.2054,14.118 -2.5744,5.7154 -3.0105,13.65 -10.576,14.82 -1.3108,6.0707 2.2921,6.0598 7.5992,5.3303 47.696,-0.005 95.426,0.0107 143.1,-0.008 -6.9089,-7.7827 5.0969,-16.498 0.44907,-24.668 -0.66675,-5.6273 -4.4598,-12.768 2.4937,-15.909 5.1989,-3.2137 -1.2027,-6.1927 -0.43508,-10.71 -0.0802,-5.1341 7.3429,-7.328 5.2113,-13.188 -0.29209,-12.472 0.48706,-24.936 1.2828,-37.263 -0.89098,-14.262 -0.66166,-29.247 2.3906,-43.223 5.9662,-3.018 4.5991,5.6084 6.012,8.881 -1.0235,4.5522 3.0168,6.656 5.2032,2.7245 4.4069,-2.6626 -0.32993,-9.6574 5.2481,-11.967 5.0072,-6.8831 7.571,0.33031 5.403,5.4597 -2.5629,4.7665 -8.0132,8.1736 -6.6197,14.343 -0.26055,3.3844 8.0177,-0.30714 6.668,6.037 2.8276,6.5259 -7.7512,13.384 -0.4418,18.258 0.38638,2.1005 1.9777,7.6244 3.7602,4.2014 5.1378,-6.9791 9.9591,-14.959 10.863,-23.906 3.2225,-11.676 1.2983,-23.947 3.0739,-35.922 2.7685,-7.0663 0.77229,-15.602 2.6348,-23.148 0.0529,-5.548 3.7682,-4.6893 1.0847,-10.463 -0.99804,-6.075 3.8004,-11.562 3.5462,-17.67 1.0861,-3.2773 -4.5299,-9.9104 -3.4022,-15.23 -1.6564,-12.986 1.3918,-27.418 -6.3802,-38.813 -5.6676,-17.722 -8.162,-36.603 -13.062,-54.691 -1.2328,-3.741 1.8829,-10.184 -2.1212,-11.162 -0.72454,-4.254 -1.2449,-9.6341 -3.6348,-12.471 -3.8964,-2.0479 -8.6603,-6.3064 -6.7012,-11.488 1.7467,-4.8221 2.2807,-8.5229 0.42007,-12.98 -1.3391,-5.1193 6.4097,-8.1576 1.7409,-12.536 -5.1133,-5.7665 -5.6382,-13.556 -5.2899,-20.898 -2.257,-3.6473 -3.777,-7.4337 -8.8399,-5.7794 -9.6174,-4.939 -22.198,-7.0875 -29.779,-16.018 0.35205,-3.7141 2.4408,-6.9205 1.1974,-10.641 -0.84616,-2.4053 -6.9284,3.4488 -10.171,1.5968 -4.306,-4.0141 -1.1959,-10.622 -1.5222,-15.874 1.0648,-7.2522 6.3115,-7.6553 12.56,-6.0385 2.4079,0.40995 7.1268,1.6195 5.0572,-2.1393 -4.1502,-2.726 -6.497,-5.7396 -11.237,-7.0975 -5.0434,-3.2506 -9.4755,-9.0736 -8.7545,-15.456 -1.0773,-4.6197 1.6568,-12.602 -4.892,-12.806 -9.9182,0.06312 -19.833,-0.18849 -29.75,-0.3091 z m 24.539,44.496 c 5.1398,1.1421 -5.4333,1.8516 -0.0332,0.01326 z m 89.09,72.129 c -1.763,6.6742 3.018,5.5082 0,0 z m -0.0508,20.145 c -4.9706,5.8439 5.1242,1.2818 0,0 z m 1.4492,8.4473 c -1.2564,8.4253 2.2338,9.1553 0,0 z m -201.9,5.8476 c 1.7635,5.6312 6.3245,0.44841 1.2988,0 z m -1.6992,1.418 c -1.9274,4.0432 6.5099,7.402 0.44873,0.71807 z m 202.16,2.2109 c -9.3542,1.693 5.4026,2.8466 0,0 z m -7.9609,7.916 c -1.6137,5.1384 6.763,2.5772 0,0 z m 23.672,126.21 c -5.1652,7.5506 4.6276,2.8164 0,0 z m -27.02,28.623 c 3.6004,3.0996 1.8066,11.877 -2.4863,12.965 -0.68779,-3.5138 -1.726,-10.647 1.6094,-12.678 l 0.87692,-0.28714 z" style="fill:#464646;stroke-width:1.29960001" />
  <path inkscape:connector-curvature="0" id="path33" d="m 173.13,22.75 c -1.9431,6.3789 -6.2288,12.385 -5.7655,19.399 -0.80624,6.1913 -6.3607,10.425 -12.258,10.885 -3.9534,4.9987 -12.109,5.5182 -15.916,9.8809 1.1691,2.0012 6.1456,0.0031 8.8653,0.38672 3.8243,1.3335 14.431,-3.7213 13.608,2.0707 -0.17902,2.7854 -1.6206,5.5547 0.80037,7.8044 1.8604,6.2904 -4.8997,9.4022 -10.232,8.3994 -4.3716,0.24524 -6.802,-6.7136 -10.735,-5.1514 0.22997,6.888 3.8306,17.492 -4.2299,21.185 -8.2353,2.1441 -16.659,3.8401 -25.214,3.5083 -4.7007,4.573 0.72073,13.181 -2.9261,18.195 -3.4698,-0.22938 -4.9496,5.2332 -6.3262,7.8391 0.56115,10.077 -11.053,16.882 -7.5063,27.282 2.6722,14.46 -8.3057,27.325 -6.4955,41.881 -0.67519,17.466 0.52345,35.646 -4.6712,52.438 1.2946,4.8196 4.7164,10.589 0.53602,15.836 -1.1264,12.142 -5.9079,24.208 -2.7529,36.392 1.7604,25.832 1.7336,51.86 3.5986,77.616 2.2181,2.2518 3.7674,12.416 6.2422,9.7403 1.6458,-2.2902 8.2748,1.3998 7.1504,-0.61355 -2.1924,-9.0913 -7.5325,-17.597 -6.3699,-27.371 -1.8242,-4.1584 2.6603,-12.159 6.6786,-6.6115 1.5979,5.3684 3.4911,10.031 5.0922,15.231 0.1535,2.7972 1.4505,1.8498 1.1976,-2.1581 0.24872,-5.785 -0.33833,-12.91 1.4158,-18.893 -3.1513,-5.2308 -1.5587,-12.157 -1.6205,-18.047 1.962,-6.293 0.69325,-13.852 7.0743,-17.951 4.1511,2.3233 6.6534,7.9638 7.2847,12.59 -0.74853,36.197 0.54583,72.611 -4.3901,108.56 -1.9258,4.2988 -4.5254,7.2598 -3.975,12.612 -2.0109,8.979 -1.7411,18.605 -4.2208,27.298 -3.7026,3.8907 0.91722,10.15 -2.982,14.968 -2.6446,3.8541 -7.1761,6.7078 -6.9706,11.963 -0.1952,5.5321 -6.9537,6.3926 -7.2286,11.886 49.403,-6.8e-4 98.862,0.0113 148.25,-0.006 -3.1643,-9.4077 3.561,-19.161 -0.28134,-28.57 -2.2693,-5.3737 -0.92335,-10.493 4.0919,-13.498 -0.36681,-5.5312 -3.359,-12.487 2.8145,-16.303 0.12309,-14.984 2.1506,-29.963 3.3458,-44.779 -4.0993,-12.537 0.39473,-25.929 0.85352,-38.764 -0.306,-4.5554 7.0416,-6.4827 6.8346,-1.0948 2.4352,2.8664 0.0767,10.97 3.371,10.433 5.0313,0.76149 2.6181,-6.8447 5.3562,-10.067 2.6264,-2.4194 9.4696,-12.474 9.1167,-3.4087 0.52059,5.5908 -2.6922,11.604 -7.0903,14.949 0.47116,2.9409 -2.6635,9.2901 2.457,6.7619 5.7086,-0.76482 5.2526,9.5768 2.7127,13.298 -3.1907,3.9116 -0.43081,7.0022 1.3325,10.589 -1.2546,4.2374 4.5734,4.1986 5.0222,0.21047 6.2227,-8.4429 8.3087,-18.665 10.004,-28.837 2.1939,-9.0617 -0.58521,-18.801 1.0837,-27.831 2.2109,-7.0024 0.516,-15.12 1.4578,-22.493 0.27233,-7.9553 -0.31604,-16.415 3.4108,-23.456 0.3342,-9.6563 -2.6371,-19.761 -2.4521,-29.728 -0.71472,-10.881 -0.007,-22.333 -5.9214,-31.972 -7.6506,-20.093 -11.781,-41.354 -13.624,-62.734 -3.8316,-4.8758 -1.1228,-12.628 -7.581,-15.25 -5.2346,-3.8025 -1.5399,-11.465 -2.3742,-17.089 -0.40772,-5.8308 0.99315,-11.63 2.1252,-16.962 -5.093,-5.1207 -5.0869,-12.341 -6.0148,-18.746 -1.3529,-4.5369 -4.8136,-9.2885 -9.9833,-9.2369 -9.8189,-4.348 -21.372,-7.3041 -28.274,-16.028 0.0902,-3.3975 1.6574,-8.5109 1.34,-11.069 -3.5351,2.5379 -8.8717,3.8237 -12.52,1.5508 0.46498,-5.5842 0.9804,-9.5213 0.83795,-15.117 1.5388,-4.304 3.7037,-9.4092 7.7969,-7.0254 3.206,-0.56155 7.7637,1.6395 10.18,0.83389 2.5259,-1.5065 -4.2322,-3.7636 -6.0198,-5.3575 -8.1276,-3.4588 -15.353,-11.38 -14.65,-20.895 -0.46263,-3.7752 1.6293,-10.168 -3.9562,-9.9726 -9.8434,-1.6819 -19.857,-0.46626 -29.811,-1.3891 z m 3.1836,43.576 c 2.6532,5.8842 -7.8766,1.4524 0,0 z m 19.412,1 c 7.0594,-1.391 -0.93195,6.1696 0,0 z m 77.014,272.27 c 6.5052,-1.1302 3.1548,9.566 2.2502,13.439 -3.5953,3.7586 -5.5492,-7.6784 -3.3112,-10.567 0.29066,-0.97748 0.72179,-1.9106 1.061,-2.8723 z m 3.2168,12.689 c -0.19408,2.125 -2.1793,3.6988 0,0 z m 6.5469,21.471 c 1.6406,3.8939 -0.87419,6.2541 0,0 z" style="fill:#2f2f2f;stroke-width:1.29960001" />
  <path inkscape:connector-curvature="0" id="path35" d="m 172.98,22.742 c 0.14858,6.3821 -5.3641,11.239 -4.9489,17.823 -0.77218,5.3504 -2.6219,11.04 -8.7476,11.873 -6.4606,3.0265 -13.849,6.9959 -19.446,10.26 1.2743,2.2469 6.1426,0.05313 8.0056,0.62721 4.2567,-1.4525 9.7792,0.3658 12.532,-3.3596 2.7081,2.6525 3.7544,4.5854 1.4452,7.2728 -2.7907,3.0559 4.6378,5.7684 1.504,9.9207 -1.8025,8.1266 -14.163,6.6088 -17.957,0.56622 -3.5804,-0.9968 -4.8423,1.241 -2.8245,4.4192 3.2422,6.8182 -0.79035,17.623 -9.6102,16.374 -6.2464,2.9298 -14.024,2.6273 -20.387,4.5488 -2.3715,5.5079 -0.29456,11.432 -2.5635,16.875 -5.3861,0.97399 -5.8335,8.3137 -7.6645,13.183 -2.3998,6.4927 -7.9798,11.7 -6.0181,19.174 0.71172,9.5031 -0.33181,18.805 -4.0801,27.62 -4.3039,18.11 -2.3249,37.021 -4.8073,55.433 0.41811,6.1426 -4.7555,12.578 -0.15365,17.96 1.1123,8.1034 -3.0117,15.486 -2.8887,23.623 -0.66665,7.3356 -3.2785,14.71 -1.2295,21.685 0.89347,23.783 0.3669,47.721 2.0831,71.411 0.73352,6.5831 1.8045,12.962 5.6054,18.496 4.1827,-4.029 10.932,0.40652 5.1623,-8.4207 -4.5264,-8.298 -4.2499,-18.119 -2.9182,-27.101 3.9713,-6.0503 9.3195,2.9279 8.4834,7.114 -0.53218,1.5972 5.3963,10.186 3.9598,4.8159 -0.30807,-5.9492 -0.14398,-12.476 0.11611,-17.799 -4.5957,-10.099 0.6279,-20.319 0.98743,-30.64 2.2521,-3.9351 8.9089,-8.0429 10.475,-1.3692 3.5112,4.7238 4.723,10.628 3.9079,16.709 -1.1893,34.491 -0.32658,69.234 -5.5438,103.42 -2.1092,11.436 -6.1662,22.257 -4.8619,33.997 1.7633,6.4869 -7.4664,5.064 -2.836,11.147 -2.3714,4.5369 -2.6187,9.5341 -6.5556,13.623 -4.4786,3.7955 0.0496,10.786 -6.4112,13.377 -2.848,1.5638 -4.201,6.1468 0.80077,4.3985 47.114,-0.003 94.239,0.005 141.35,-0.004 -1.6453,-3.8717 -4.0858,-9.6086 0.006,-12.955 0.43126,-8.5221 -2.8035,-17.578 -0.86524,-25.982 5.8016,-3.912 2.81,-6.3312 2.488,-11.048 5.0605,-7.3893 5.3185,-16.278 5.5762,-25.014 2.1106,-23.185 -0.93421,-46.798 4.4827,-69.585 2.6982,-7.0482 8.5859,-2.2058 9.6093,3.0953 -0.39676,4.3081 1.6761,11.093 4.423,4.9864 -0.71129,-6.4825 5.1201,-12.193 9.5058,-15.518 4.098,0.65483 2.4406,10.541 0.70211,13.78 -2.3488,3.2679 -6.4904,6.7453 -5.0112,10.787 7.2858,2.7372 7.4628,11.751 4.0001,17.43 -3.2403,4.4438 2.5508,8.4278 3.6134,12.742 4.9026,-6.9458 9.8737,-15.208 10.489,-24.288 2.4443,-8.3809 3.4523,-17.095 2.605,-25.59 -0.46754,-26.026 2.2822,-52.021 1.1686,-77.948 -1.2948,-11.131 -0.65008,-22.996 -3.163,-33.686 -2.7048,-3.1799 -3.7183,-7.3251 -4.545,-11.527 -4.6468,-9.0547 -7.0516,-20.977 -9.0147,-31.594 -2.7427,-12.503 -3.0096,-26.608 -10.298,-37.284 -3.9173,-6.3674 -0.81328,-15.206 -1.5189,-22.929 -0.23223,-5.6219 0.98051,-13.642 -0.03,-18.015 -4.3756,-5.8065 -3.2962,-14.995 -7.129,-20.613 -9.5302,-5.0971 -20.773,-8.7265 -29.103,-14.042 -5.4567,-2.4335 -5.8757,-7.4659 -4.1035,-12.704 1.9609,-5.6525 -5.6808,0.77451 -8.6865,-0.07243 -5.4204,0.35355 -7.7984,-7.3522 -2.543,-9.3908 -2.4969,-5.1889 0.12619,-11.017 1.7286,-16.389 5.5762,-3.4956 4.3292,2.1545 9.014,1.0879 2.7304,-0.27853 12.29,0.89855 4.6708,-1.613 -2.6414,-2.5974 -5.517,-1.9605 -6.7586,-4.8851 -5.2528,-0.44164 -9.4202,-7.1389 -11.085,-11.796 -1.2698,-5.2094 -1.0569,-11.487 -2.3446,-16.143 -10.438,-2.1242 -21.212,-1.5686 -31.842,-2.3507 z m 3.0449,43.41 c 7.0175,4.187 -8.0022,4.0519 -2.5815,0.77453 0.82264,-0.38004 1.715,-0.53125 2.5815,-0.77453 z m 19.045,0.52539 c 8.1126,-0.85723 -0.55782,8.0888 0,0.12826 z m 1.9492,4.5488 c 9.756,3.7212 -4.1095,6.4709 0,0 z m -0.21485,24.691 c 0.27753,7.732 1.757,15.884 1.1855,23.506 -3.2162,-7.292 -0.62791,-15.773 -1.1855,-23.506 z m -25.373,5.0508 c 1.9444,6.8036 -3.0933,11.094 -0.82105,2.3191 0.41765,-0.69356 0.20435,-1.7346 0.82105,-2.3191 z m -3.2891,28.811 c 6.2581,3.8226 -2.8333,6.3129 0,0 z m 90.006,2.5293 c 5.4488,-0.78083 -2.4897,6.1439 0,0 z m 14.9,205.34 c 7.1042,-1.9331 2.68,7.6405 3.864,11.49 1.2714,7.111 -6.7529,8.6236 -6.5675,1.0209 -0.89908,-4.5712 -1.2196,-9.2421 2.7034,-12.51 z m 9.4492,35.09 c 2.3342,4.4319 -0.81871,16.267 0,5.1992 z" style="fill:#232323;stroke-width:1.29960001" />
  <path inkscape:connector-curvature="0" id="path37" d="m 104.04,125.67 c -1.517,1.0727 -1.3952,3.3134 -2.024,4.9674 -0.92962,1.2494 -2.7409,1.5407 -4.041,2.4193 -1.3049,0.23033 -1.4209,1.3237 -0.03873,0.6648 0.97561,-1.0408 -0.46215,0.72266 0.7173,0.0767 0.79259,0.0569 3.5975,-1.1662 3.1432,0.0705 -1.2431,0.77502 0.0885,2.6791 0.3058,2.7009 -0.88185,1.3681 -3.1435,1.7653 -4.1407,0.45823 -1.7938,-0.91998 0.07185,1.9128 -0.79854,2.8152 -0.82807,1.8082 -3.4231,1.4787 -5.1219,1.9613 -2.0831,0.52773 0.08031,3.9339 -2.2779,4.3213 -0.42236,1.7951 -1.9296,3.5486 -1.7393,5.5449 0.04586,2.36 -0.44852,4.6408 -1.3134,6.83 -0.31068,4.0558 -0.49444,8.1537 -0.87959,12.216 -0.20379,1.7415 0.56401,3.5949 -0.28298,5.3993 -0.4714,1.8196 -0.3904,3.7369 -0.34449,5.612 0.12626,4.1902 0.23044,8.3811 0.32914,12.572 -0.36838,1.4276 0.14597,3.0099 0.51897,4.4018 0.18884,1.1845 0.94602,1.2958 1.9792,0.78976 -0.86797,-1.9674 -1.2736,-4.0484 -0.96092,-6.2066 0.47768,-2.0406 2.0804,0.61207 1.9821,1.6469 1.1188,1.439 0.25432,-2.223 0.4749,-3.1005 -0.72049,-1.9878 -0.05627,-4.3677 0.38275,-6.4248 0.8873,-1.849 2.3561,-0.94299 2.7116,0.66411 0.41252,1.829 0.08264,3.776 0.17671,5.6504 -0.07733,2.4338 0.10026,4.8919 -0.25781,7.2965 -0.01122,2.7588 -0.19931,5.5171 -0.28442,8.2758 -0.16355,1.8179 -1.1024,3.6258 -0.76317,5.5468 -1.0795,1.0124 -0.57196,3.4985 -0.77364,5.3335 -1.195,-0.0311 -0.40018,2.4266 -1.6425,3.0118 -0.19074,0.94018 -0.68638,1.5149 -0.78202,2.6911 -1.0521,0.79691 -1.5864,1.6271 0.13773,1.3088 9.234,0.002 18.468,1.2e-4 27.702,8.4e-4 -0.35118,-1.0792 -0.67827,-1.8894 -0.0149,-2.859 -0.20229,-1.6445 -0.17819,-3.3047 -0.10904,-4.9569 1.3831,-1.185 -1.0502,-2.3144 0.85182,-3.1215 0.79118,-1.3701 0.52009,-3.0873 0.77127,-4.6159 0.11813,-2.7408 0.68644,-5.5257 0.15738,-8.2329 0.209,-1.8482 0.73165,-3.6412 0.79114,-5.4988 0.44252,-2.2983 2.8937,-0.0572 2.3561,1.4794 1.0132,0.8703 0.0333,-2.1428 1.3738,-1.9672 0.42328,-0.93516 1.652,-2.4015 1.7144,-0.44672 0.56,1.6868 -1.5362,3.0378 -1.1388,4.3594 2.025,0.80975 0.42904,3.0444 0.65654,4.4477 0.35709,1.7903 1.2588,1.2617 1.7447,-0.16213 1.0633,-1.717 1.0662,-3.7883 1.5856,-5.6878 -0.3475,-0.72502 0.78812,-2.9437 -0.65197,-2.248 0.48267,-1.9158 0.94056,-3.8273 0.61907,-5.8214 -0.0366,-2.8351 0.0894,-5.6745 0.21048,-8.5 -0.18872,-2.7156 -0.28741,-5.441 -0.44771,-8.1603 -0.83043,-1.6371 -1.3104,-3.3446 -1.9978,-5.0477 -0.69891,-2.4092 -1.2957,-4.8702 -1.6507,-7.3501 -0.0349,-1.8854 -0.90156,-3.6384 -1.7743,-5.2483 -2.1052,-0.67746 0.55029,-2.0874 10e-4,-3.5238 -0.1635,-0.88905 0.57228,-3.5017 -0.11428,-3.3414 -1.0742,0.17828 -1.3028,-2.1464 -0.43634,-2.5223 -1.0659,-0.6768 0.0831,-2.943 -1.9581,-3.0606 -1.6334,-0.87073 -3.3935,-1.4902 -4.966,-2.3435 -1.701,-0.59477 0.44294,-4.1163 -1.8418,-2.6223 -1.2761,0.3199 -1.901,-0.97966 -2.4268,-1.6449 2.054,0.84947 0.8736,-2.1183 1.6322,-3.1192 0.095,-1.0808 1.5939,-0.51885 1.669,-0.24083 2.2189,-0.5695 -1.2198,-1.1992 -1.5799,-2.1965 -2.0733,-1.2653 0.26505,-5.4658 -2.9382,-5.0118 -1.395,-0.0661 -2.7883,-0.17116 -4.1828,-0.25082 z m 4.63,7.5712 c -0.56789,1.0106 -2.0996,-0.1798 -0.35923,0.0133 z m -5.8519,0.13241 c 1.1168,0.14361 3.8946,-0.22964 4.0444,0.23341 -1.1883,-7e-4 -3.2952,0.79817 -4.0444,-0.23341 z m 1.1814,1.0835 c 1.2886,1.3356 -2.5755,0.41044 0,0 z m 3.8983,0.10696 c 2.0373,-0.0199 -1.057,1.486 0,0 z m 0.27437,0.93125 c 1.211,-0.0377 1.26,1.1803 0.20509,1.3329 -0.7578,1.6649 -0.61747,-1.1795 -0.20509,-1.3329 z m -5.2829,0.28987 c 2.4868,0.27109 -1.1256,1.2936 0,0 z m 0.55071,3.2768 c 0.34675,2.2287 -0.772,4.5213 -0.44721,6.8461 0.0846,0.64308 -0.0756,3.8707 -0.58841,1.9821 0.39829,-1.5236 0.11149,-3.1354 0.31632,-4.7026 0.0578,-1.4011 0.25746,-2.7969 0.7193,-4.1255 z m 4.4574,0.34514 c 0.99854,1.2429 0.41901,3.1352 0.71063,4.6546 0.23343,3.7179 0.17033,7.4442 0.1079,11.166 -0.62934,-1.0416 -0.1354,-3.0534 -0.24084,-4.4693 -0.0946,-3.7858 -0.41513,-7.5664 -0.57769,-11.352 z m 12.679,7.3716 c -1.0541,0.5607 0.81613,1.5493 0.20269,0.0949 0,0 -0.20269,-0.0949 -0.20269,-0.0949 z m -17.685,2.0728 c 0.48423,0.83238 -0.21367,1.2528 0,0 z m 0.4183,1.4358 c 0.19854,1.0882 0.55678,3.4414 0.15084,3.7445 0.0347,-1.1956 -0.5857,-2.6989 -0.15084,-3.7445 z m 0.37576,4.1202 c 0.42201,0.90884 -0.23875,1.3311 0,0 z m 4.5282,2.9102 c 0.45055,0.9774 -0.12562,3.1571 0,1.1333 z m 0.21194,3.2641 c -0.038,0.92074 -0.55631,3.6858 -0.37531,1.3474 0.13951,-0.42396 -0.24145,-1.2119 0.37531,-1.3474 z m 15.367,29.001 c 1.1748,0.26542 1.0201,3.1728 0.10466,3.8567 -1.4864,-0.0838 -1.1581,-3.2431 -0.10466,-3.8567 z m -2.5874,4.1262 c 0.52846,1.3302 -1.7756,0.53813 0,0 z m 4.4475,2.8999 c 1.1112,0.46809 -0.37481,4.038 -0.0179,1.445 -0.0127,-0.47988 -0.0485,-0.97395 0.0179,-1.445 z" transform="matrix(4.9282,0,0,4.9282,-338,-596.75)" style="fill:#161616;stroke-width:0.26458001" />
  <path inkscape:connector-curvature="0" id="path39" d="m 105.1,125.93 c -1.044,-0.12047 -2.0671,0.30596 -1.7685,1.4963 -1.031,0.87933 -0.58469,2.7132 -1.294,3.7916 -0.90157,0.38999 -2.0618,1.1004 -2.4535,1.4896 -1.0341,-0.46709 -0.432,0.1702 -0.48715,0.65326 -0.59543,0.0472 -0.64558,-1.0525 -1.3691,-0.12217 -0.5404,0.44403 -1.1,0.89014 -0.10346,0.35427 0.51619,-0.27489 0.7537,-0.0937 0.49001,0.32122 1.796,-0.73045 3.6932,-0.91507 5.6369,-0.79073 2.6096,0.0277 5.187,-0.44764 7.78,-0.60014 1.1002,-1.2268 -1.9726,-1.8907 -1.477,-3.4567 -0.29695,-0.81823 0.29207,-2.4334 -0.81718,-2.4396 0.50147,-0.81259 -1.7517,-0.28043 -2.3335,-0.58743 -0.59982,-0.0549 -1.2011,-0.0988 -1.8035,-0.10951 z m 6.9804,6.1199 c 0.50825,1.316 1.0309,-0.38426 0,0 z m -11.252,0.27079 c 0.37336,0.55096 -1.3228,-0.0202 0,0 z m 10.223,1.1571 c -1.3675,0.0921 -2.7073,0.27249 -4.0618,0.46063 -1.1136,0.41926 -3.1019,-0.44332 -2.7667,1.2064 -0.46703,0.66788 -0.9944,-0.44732 -1.694,-0.32024 0.7145,-0.1865 0.64523,-0.70417 1.4334,-0.45475 -0.40032,-1.0829 -3.2426,-0.49601 -2.4165,1.0951 -0.13335,1.717 2.028,-1.3313 1.6996,0.22723 0.55089,0.13843 1.4336,-0.0486 0.66028,0.62606 1.0962,1.4508 -0.53261,3.2616 -0.28964,4.9142 -0.29524,2.1317 -0.62254,4.2744 -0.34344,6.4293 -0.028,2.1636 0.93214,4.2138 0.7145,6.3935 -0.22712,1.4827 0.53438,3.5715 -0.32117,4.6717 -1.2029,-0.16036 -0.23209,-2.3447 -0.55812,-3.2688 0.1056,-1.958 -0.10715,-3.9067 -0.71774,-5.7728 -0.45852,-1.2782 -0.16849,-2.5458 0.0631,-3.6884 -0.0577,-2.9004 0.5094,-5.7655 0.43384,-8.6664 0.0629,-1.5188 -0.89742,0.54706 -1.3734,0.0364 -0.95313,1.0315 -2.9136,1.1085 -3.6266,-0.27071 -0.09518,0.50814 0.31701,2.0141 -0.13229,0.57593 0.02498,-1.1215 -1.051,-0.92045 -0.44976,0.088 0.57543,1.6901 -0.36288,3.6932 -2.3758,3.5737 -1.4722,0.63845 -4.1766,0.17547 -3.7435,2.4472 0.23502,1.8506 -1.4604,2.2677 -1.8733,3.9218 -0.07783,1.6962 -1.9041,2.6733 -1.2699,4.513 0.09914,1.5169 0.03401,3.0305 -0.43366,4.4872 -0.72371,1.4259 -0.9761,2.9101 -1.0487,4.5034 -0.09438,2.5056 0.06572,5.0294 -0.05201,7.5417 -1.556,1.8472 0.41188,3.6653 -0.18311,5.6723 -0.7447,1.5836 -0.64868,3.4197 -0.96801,5.1278 -0.14636,1.5135 0.04102,2.9313 0.57561,4.0889 0.05619,0.71791 -0.0058,1.361 -0.57718,1.5636 0.08941,3.879 0.17686,7.758 0.28359,11.636 -0.04844,1.218 1.2453,1.5354 0.94241,2.6107 0.69576,0.063 2.0656,0.009 1.0769,-0.94968 -1.0601,-1.8126 -0.56321,-3.9255 -0.55353,-5.9005 1.9857,-0.98969 1.5648,2.5313 2.4439,2.8569 0.41947,-1.2851 -0.87226,-2.2445 -0.0011,-3.3312 -0.96186,-0.99501 -0.29775,-2.6821 -0.33141,-3.9744 0.35128,-1.0598 0.42603,-2.8246 0.78318,-3.4171 0.85019,-0.2619 2.0967,-1.7868 2.1847,-0.009 1.1489,1.4261 0.74569,3.2762 0.81362,5.0335 0.01739,2.7661 0.03714,5.5322 0.02639,8.2983 -1.2009,0.91735 0.77346,2.3247 -0.49876,3.3677 0.12628,2.3061 0.19634,4.656 0.11223,6.9816 -0.06295,1.5831 -1.6122,2.6844 -0.62385,4.3061 0.29016,1.4854 2.5868,2.8936 1.1422,4.2226 -1.0107,1.4283 -3.2865,1.901 -3.2615,3.8799 -1.1799,0.41552 -0.23737,2.2824 -0.9541,3.2597 -1.0805,1.3877 0.69642,1.1222 1.6172,1.1118 h 25.207 c 0.25729,-2.0854 -2.4662,0.16805 -2.3071,-1.7833 -0.33229,-1.5281 0.84028,-2.7355 1.3988,-4.0463 0.43629,-0.82205 0.56191,-1.952 0.91609,-2.5906 -0.44055,-1.1161 -1.2643,0.61115 -1.0037,-0.86121 -0.55574,-1.938 2.4433,-1.8787 2.3687,-3.7981 -0.0914,-2.8171 0.15722,-5.6234 0.54182,-8.4113 -0.86692,-2.0024 -0.13225,-4.1837 0.26759,-6.207 -0.78025,-0.97981 0.79446,-1.5046 0.35512,-2.3844 1.0159,-0.986 1.8907,-1.4391 3.1845,-1.9012 0.6091,-0.61236 0.78857,0.51598 -0.0319,0.38135 0.58395,0.7921 0.22472,1.722 -0.72194,1.5992 -0.38262,0.85724 2.0953,0.12647 1.6285,-0.85002 0.97773,-1.4426 0.12906,-3.3906 0.82339,-4.9918 -0.42894,-0.84071 1.1235,-0.57146 0.69519,0.0418 1.574,-0.48395 0.76002,2.3861 0.72039,3.2913 -0.3324,1.8393 -0.14382,3.9172 -1.4217,5.4332 -0.87284,1.4435 2.0627,2.436 0.78944,4.0473 -0.61423,1.1967 1.0633,-0.6792 0.44984,0.59963 -0.51113,-0.11736 -1.4664,0.73011 -0.48408,0.74393 -0.49199,1.2155 1.1658,1.6006 1.1517,0.21725 -0.12243,-0.99266 1.1526,-1.1972 0.97411,-2.4022 -0.054,-0.61813 0.51296,-2.3732 0.0865,-2.4504 -1.0104,1.703 -0.32641,-1.1337 -0.39457,-1.782 0.31391,-1.1374 -0.0809,-3.1208 0.59916,-3.5413 0.70746,-0.21659 -0.0417,-2.231 0.27277,-3.1772 -0.14765,-1.2648 -0.40018,-2.576 -0.21803,-3.8783 0.11673,-1.0621 -1.1177,-0.62255 -0.73435,-1.7147 -0.40246,-1.5962 1.6452,-2.3498 0.9076,-4.0434 -0.0704,-2.0696 -0.169,-4.1381 -0.24708,-6.2074 -0.26084,-0.70132 -0.90037,1.0042 -0.56031,-0.13697 0.92142,-0.37215 0.70581,-1.0739 -0.0436,-1.008 0.70512,-1.6329 -1.4244,-2.2182 -1.1345,-3.8574 -0.72218,-1.1533 -0.5935,-2.8949 -1.5322,-3.786 -0.30016,-1.9682 -0.38485,-4.001 -0.62493,-5.9929 -1.0413,-0.85333 -0.39305,-2.8006 -2.0297,-3.3129 -1.0863,-0.89564 -0.218,-2.6335 -0.21867,-3.8572 1.4792,-1.1648 0.35179,-3.2918 -0.56001,-4.4807 0.35047,-1.1073 -0.65705,-2.0362 0.33544,-2.9866 0.22733,-1.6095 -1.4657,-1.222 -2.3338,-1.6562 -0.16722,-1.1908 -1.8424,-1.5122 -2.8809,-1.8461 -0.47134,-0.78394 -2.2372,-1.1803 -2.1413,-2.445 1.1827,-1.899 -2.1583,-0.19982 -2.8882,-1.2312 -0.3285,-0.5159 -1.2508,-1.2339 -1.0267,-0.0746 1.1058,0.27653 -0.68919,0.84893 -0.0743,1.6915 0.20429,5.9719 0.39115,11.945 0.33584,17.921 2.8e-4,0.62136 5.6e-4,1.2427 8.4e-4,1.8641 -0.70387,1.2778 -0.16924,2.8769 -0.32428,4.2937 0.005,1.3809 0.0101,2.7619 0.0154,4.1428 -1.8426,-0.87389 -1.2634,-3.4954 -1.1253,-5.1586 0.3172,-2.1177 0.5304,-4.2632 0.4497,-6.4113 0.0915,-2.8178 0.39212,-5.6367 0.0989,-8.4533 -0.16731,-2.9332 0.0588,-5.8797 -0.35232,-8.7998 -0.29328,-0.96882 0.0125,-2.9718 -0.18754,-3.1457 -1.2454,0.1399 1.1906,-1.8994 -0.20573,-1.1321 -0.4487,0.88483 -0.97593,0.82801 -0.63118,-0.23763 0.88488,-0.19196 2.9458,-0.52635 2.3127,1.1089 0.74022,0.91006 0.26511,-1.365 0.87356,-0.0915 -0.62606,0.54459 0.0287,1.5531 0.51001,0.71123 0.24253,-0.88021 -0.93109,-2.2406 0.6467,-2.252 l 0.0305,-0.17575 -0.0142,-0.2426 z m -13.431,5.6014 c 0.20071,0.22891 -0.10252,0.43646 0,0 z m -2.6653,2.3635 c 0.57828,0.97312 -0.29198,1.3604 0,0 z m 28.632,26.602 c 0.54848,1.0531 -0.46997,0.90892 0,0 z m -37.099,1.9734 c 0.59047,0.97298 -0.29684,1.357 0,0 z m 4.3719,11.029 c 1.1051,0.26545 -0.02344,1.4503 0.78858,1.7895 -1.1279,0.31853 -2.4253,-1.5646 -0.78858,-1.7895 z m 34.781,6.5728 c 0.63313,0.41863 -0.29965,1.336 0,0 z m -32.243,5.6813 c 0.44112,0.67493 -0.09224,3.1973 0,1.3568 z m 32.786,4.1011 c -0.0386,0.70813 0.68081,1.4847 0.49366,0.24918 0.06,-0.27387 -0.32396,-0.3477 -0.49366,-0.24918 z m -34.446,16.631 c -1.0342,0.45559 -1.1399,2.7821 -0.44336,3.0832 1.6861,-0.63289 0.43046,-1.9838 0.44336,-3.0832 z" transform="matrix(4.9282,0,0,4.9282,-338,-596.75)" style="fill:#0a0a0a;stroke-width:0.26458001" />
 </g><g id="g57" transform="matrix(0.8,0,0,0.8,256,108)" style="opacity:0.5;filter:url(#filterTwo)">
  <g id="g55" style="filter:url(#filterThree)">
   <path inkscape:connector-curvature="0" id="path43" d="m 171.68,21.445 c -2.1298,8.3745 -5.7884,16.389 -7.0132,24.892 -7.1158,6.1069 -16.053,10.094 -24.195,14.876 -8.7274,4.8299 13.185,1.0318 17.052,2.118 8.6663,2.8278 2.502,24.516 -7.7295,15.935 -4.2818,-3.2333 -11.429,-9.5079 -9.4244,0.06671 5.7327,8.6557 0.20277,19.976 -10.379,19.327 -9.5388,2.4382 -22.73,-2.4358 -23.41,11.842 4.8e-4,8.6905 -5.62,16.653 -6.8,25.254 -6.8013,7.2048 -11.332,15.676 -10.309,25.724 -1.7863,8.2388 -12.091,15.333 -3.9921,22.934 3.1043,12.086 1.3795,24.795 1.9373,37.166 0.09184,11.093 -1.6779,22.486 -7.7083,32.001 -4.3205,9.8083 -8.265,20.943 -3.4777,31.372 4.0212,9.5868 2.0945,20.012 3.652,29.971 4.5528,9.927 1.6484,21.763 2.7692,32.534 0.81522,11.693 -0.55892,24.19 3.618,35.226 1.4434,5.5657 4.6235,11.637 8.5994,4.5568 2.5491,0.38834 5.9276,8.7145 5.3303,1.4049 -4.3328,-10.614 -8.1738,-21.795 -6.1392,-33.358 5.935,-7.6239 7.201,10.412 9.6892,14.833 3.5927,3.5647 2.8147,-12.485 3.0836,-16.761 2.8349,-8.0562 -2.2998,-15.867 -0.11283,-24.469 -0.006,-5.105 4.279,-20.833 8.5744,-9.8168 5.0526,6.2988 4.0397,15.102 4.2579,22.93 -0.78416,30.446 -0.92846,61.059 -5.9345,91.188 -1.5479,5.7411 -11.176,-2.6084 -8.3335,6.4589 0.2482,15.534 0.17387,31.168 -2.3501,46.539 -5.6412,2.9162 0.17678,-10.55 -8.1205,-8.2421 -6.1434,3.331 7.8123,12.451 1.5466,18.957 0.06089,10.84 -22.547,4.1689 -12.138,13.357 6.7257,3.5018 15.634,0.59386 23.298,1.5427 44.52,2.5e-4 89.04,-0.002 133.56,0.002 -6.1707,-9.5786 7.2002,-18.292 1.3962,-28.619 -2.811,-8.4227 12.481,-17.195 2.0672,-20.54 -4.4128,-8.9437 16.693,-9.2686 5.636,-17.003 -4.9935,-10.582 3.2766,-19.144 0.67457,-30.227 -0.0401,-12.663 -3.0274,-25.208 -0.38174,-38.095 -0.16824,-4.1083 1.7606,-12.53 4.4442,-4.675 -0.6031,6.3787 1.8331,12.625 8.2606,7.1171 5.1295,0.35129 -5.5074,15.216 4.9547,9.6362 11.997,3.2877 -5.2289,17.4 3.6386,23.772 4.4974,9.7261 9.7824,-7.5855 12.76,-11.583 4.259,-12.506 7.1778,-26.143 4.538,-39.36 0.36599,-8.0429 6.6894,-12.55 4.8683,-20.97 1.1885,-12.405 11.507,-20.033 16.637,-30.563 5.8031,-6.7958 -10.616,-4.4492 -7.2312,-13.606 0.0875,-7.8732 -7.9945,-15.571 -4.7128,-24.357 -2.1242,-9.3131 -5.9354,-16.99 -9.801,-25.356 -3.8781,-9.944 -0.28432,-20.01 0.87502,-29.927 0.97047,-18.268 -1.3617,-36.7 1.7121,-54.823 0.16083,-18.994 -0.47934,-38.315 3.7623,-56.964 -5.6812,7.2856 -7.198,16.935 -10.282,25.49 -4.3024,15.216 -4.6637,31.182 -6.3495,46.736 -7.8075,6.6004 -7.5111,-9.0706 -6.5584,-13.827 0.15976,-9.4974 -3.8697,-0.78852 -3.6463,3.6734 -10.906,0.0331 -3.7776,-13.68 -0.18968,-18.521 -2.4888,-1.0141 -7.9422,-3.4522 -2.7934,-7.8391 3.6447,-3.6049 9.8966,-5.1762 2.1965,-7.3866 -7.6983,-2.9736 -9.0731,-12.433 -5.9656,-19.244 2.4218,-4.7659 4.8996,-12.231 -3.5821,-9.0114 -4.865,-3.335 -9.1501,3.093 -15.075,-1.4041 -7.0219,-4.8626 -19.767,-5.3024 -21.193,-15.483 2.4648,-6.2211 -0.36145,-11.899 -7.4619,-7.7787 -8.3846,-0.0022 -4.6898,-13.798 -2.3066,-19.024 1.9904,-5.9961 21.103,4.3486 15.282,-4.7881 -8.2483,-4.3434 -18.378,-9.7464 -18.958,-20.385 2.4231,-9.2871 -3.554,-16.709 -13.104,-14.541 -7.829,-0.51082 -15.685,-0.34927 -23.513,-0.88608 z m 102.2,321.4 c 5.6837,3.0721 -3.3466,12.123 -0.83146,1.8774 0,0 0.24559,-0.9717 0.24559,-0.9717 0,0 0.58587,-0.9057 0.58587,-0.9057 z m -2.7773,22.348 c 7.3433,5.6054 -9.3562,19.458 -5.6637,6.0925 0.85286,-2.8636 2.9664,-4.9551 5.6637,-6.0925 z" style="fill:#5f5f5f;stroke-width:1.29960001" />
   <path inkscape:connector-curvature="0" id="path45" d="m 172.62,22.83 c -1.6744,1.3561 -1.5172,6.5692 -3.4284,9.0501 -3.4426,6.377 -0.65787,16.924 -9.5818,19.498 -6.6613,3.8403 -14.029,7.1276 -20.422,10.987 -1.8591,3.2605 4.7624,0.16059 6.894,1.002 4.9774,1.3313 16.152,-4.3825 15.302,3.6063 0.33388,5.2927 2.6733,11.262 -3.0435,14.579 -6.0796,1.7179 -10.665,-2.865 -15.446,-5.4572 -4.7815,1.0756 -0.33923,5.0747 -0.63487,8.5744 1.2634,5.9813 -1.1237,13.696 -8.4394,13.537 -7.5286,2.516 -15.32,3.243 -23.225,2.911 1.6438,5.3357 -4.1179,5.9944 -2.5997,9.6334 3.3426,3.0789 -0.18181,5.7375 -0.65039,8.56 -4.9903,2.4281 -4.0052,9.5721 -6.2302,14.243 -2.2236,6.4657 -9.2109,11.114 -6.7142,18.673 -1.8108,7.3911 -0.48281,4.6076 -0.31751,12.653 -0.30835,5.5406 -3.639,11.888 -4.8823,15.039 -0.44365,4.2815 -2.4108,3.2838 -1.4224,12.053 -1.0183,19.504 2.1901,40.007 -4.9023,58.625 0.82572,4.7075 2.7944,8.9523 0.52148,13.564 -2.9832,4.6966 -1.2875,12.647 -2.7202,18.595 -1.0039,9.7472 0.33183,19.708 -0.10398,29.478 3.3824,10.37 1.6211,22.067 2.9879,32.949 1.2997,11.81 -0.01374,24.175 2.337,35.655 2.7601,2.3897 2.2877,10.355 6.5014,8.7959 -0.42184,-5.1827 7.7676,-1.7587 7.7208,1.9119 0.4513,-2.9997 -3.3249,-10.064 -4.4244,-14.459 -3.26,-7.5762 -3.2079,-16.361 -1.9018,-24.362 5.1019,-2.7827 7.1503,5.1678 7.8926,8.9651 2.6512,4.4772 2.2355,8.1861 3.5079,8.8049 0.48829,-5.4637 -0.42528,-13.968 1.639,-20.106 3.1305,-3.4699 -3.3459,-6.8097 -1.839,-11.214 -0.70076,-7.5439 2.235,-14.567 2.794,-22.003 0.8388,-3.6418 7.604,-6.9544 8.0042,-1.7779 -0.72787,3.8779 5.5979,5.2103 3.9421,9.8234 -1.0888,35.043 0.15542,70.367 -4.8579,105.12 0.58576,6.3487 -5.912,7.0512 -4.5617,13.138 -0.67433,5.1368 -3.434,8.4085 -2.6083,14.189 -0.47023,6.6084 -0.90843,13.797 -2.2712,19.867 0.11705,5.2879 -0.78561,11.56 -6.2054,14.118 -2.5744,5.7154 -3.0105,13.65 -10.576,14.82 -1.3108,6.0707 2.2921,6.0598 7.5992,5.3303 47.696,-0.005 95.426,0.0107 143.1,-0.008 -6.9089,-7.7827 5.0969,-16.498 0.44907,-24.668 -0.66675,-5.6273 -4.4598,-12.768 2.4937,-15.909 5.1989,-3.2137 -1.2027,-6.1927 -0.43508,-10.71 -0.0802,-5.1341 7.3429,-7.328 5.2113,-13.188 -0.29209,-12.472 0.48706,-24.936 1.2828,-37.263 -0.89098,-14.262 -0.66166,-29.247 2.3906,-43.223 5.9662,-3.018 4.5991,5.6084 6.012,8.881 -1.0235,4.5522 3.0168,6.656 5.2032,2.7245 4.4069,-2.6626 -0.32993,-9.6574 5.2481,-11.967 5.0072,-6.8831 7.571,0.33031 5.403,5.4597 -2.5629,4.7665 -8.0132,8.1736 -6.6197,14.343 -0.26055,3.3844 8.0177,-0.30714 6.668,6.037 2.8276,6.5259 -7.7512,13.384 -0.4418,18.258 0.38638,2.1005 1.9777,7.6244 3.7602,4.2014 5.1378,-6.9791 9.9591,-14.959 10.863,-23.906 3.2225,-11.676 1.2983,-23.947 3.0739,-35.922 2.7685,-7.0663 0.77229,-15.602 2.6348,-23.148 0.0529,-5.548 3.7682,-4.6893 1.0847,-10.463 -0.99804,-6.075 3.8004,-11.562 3.5462,-17.67 1.0861,-3.2773 -4.5299,-9.9104 -3.4022,-15.23 -1.6564,-12.986 1.3918,-27.418 -6.3802,-38.813 -5.6676,-17.722 -8.162,-36.603 -13.062,-54.691 -1.2328,-3.741 1.8829,-10.184 -2.1212,-11.162 -0.72454,-4.254 -1.2449,-9.6341 -3.6348,-12.471 -3.8964,-2.0479 -8.6603,-6.3064 -6.7012,-11.488 1.7467,-4.8221 2.2807,-8.5229 0.42007,-12.98 -1.3391,-5.1193 6.4097,-8.1576 1.7409,-12.536 -5.1133,-5.7665 -5.6382,-13.556 -5.2899,-20.898 -2.257,-3.6473 -3.777,-7.4337 -8.8399,-5.7794 -9.6174,-4.939 -22.198,-7.0875 -29.779,-16.018 0.35205,-3.7141 2.4408,-6.9205 1.1974,-10.641 -0.84616,-2.4053 -6.9284,3.4488 -10.171,1.5968 -4.306,-4.0141 -1.1959,-10.622 -1.5222,-15.874 1.0648,-7.2522 6.3115,-7.6553 12.56,-6.0385 2.4079,0.40995 7.1268,1.6195 5.0572,-2.1393 -4.1502,-2.726 -6.497,-5.7396 -11.237,-7.0975 -5.0434,-3.2506 -9.4755,-9.0736 -8.7545,-15.456 -1.0773,-4.6197 1.6568,-12.602 -4.892,-12.806 -9.9182,0.06312 -19.833,-0.18849 -29.75,-0.3091 z m 24.539,44.496 c 5.1398,1.1421 -5.4333,1.8516 -0.0332,0.01326 z m 89.09,72.129 c -1.763,6.6742 3.018,5.5082 0,0 z m -0.0508,20.145 c -4.9706,5.8439 5.1242,1.2818 0,0 z m 1.4492,8.4473 c -1.2564,8.4253 2.2338,9.1553 0,0 z m -201.9,5.8476 c 1.7635,5.6312 6.3245,0.44841 1.2988,0 z m -1.6992,1.418 c -1.9274,4.0432 6.5099,7.402 0.44873,0.71807 z m 202.16,2.2109 c -9.3542,1.693 5.4026,2.8466 0,0 z m -7.9609,7.916 c -1.6137,5.1384 6.763,2.5772 0,0 z m 23.672,126.21 c -5.1652,7.5506 4.6276,2.8164 0,0 z m -27.02,28.623 c 3.6004,3.0996 1.8066,11.877 -2.4863,12.965 -0.68779,-3.5138 -1.726,-10.647 1.6094,-12.678 l 0.87692,-0.28714 z" style="fill:#464646;stroke-width:1.29960001" />
   <path inkscape:connector-curvature="0" id="path47" d="m 173.13,22.75 c -1.9431,6.3789 -6.2288,12.385 -5.7655,19.399 -0.80624,6.1913 -6.3607,10.425 -12.258,10.885 -3.9534,4.9987 -12.109,5.5182 -15.916,9.8809 1.1691,2.0012 6.1456,0.0031 8.8653,0.38672 3.8243,1.3335 14.431,-3.7213 13.608,2.0707 -0.17902,2.7854 -1.6206,5.5547 0.80037,7.8044 1.8604,6.2904 -4.8997,9.4022 -10.232,8.3994 -4.3716,0.24524 -6.802,-6.7136 -10.735,-5.1514 0.22997,6.888 3.8306,17.492 -4.2299,21.185 -8.2353,2.1441 -16.659,3.8401 -25.214,3.5083 -4.7007,4.573 0.72073,13.181 -2.9261,18.195 -3.4698,-0.22938 -4.9496,5.2332 -6.3262,7.8391 0.56115,10.077 -11.053,16.882 -7.5063,27.282 2.6722,14.46 -8.3057,27.325 -6.4955,41.881 -0.67519,17.466 0.52345,35.646 -4.6712,52.438 1.2946,4.8196 4.7164,10.589 0.53602,15.836 -1.1264,12.142 -5.9079,24.208 -2.7529,36.392 1.7604,25.832 1.7336,51.86 3.5986,77.616 2.2181,2.2518 3.7674,12.416 6.2422,9.7403 1.6458,-2.2902 8.2748,1.3998 7.1504,-0.61355 -2.1924,-9.0913 -7.5325,-17.597 -6.3699,-27.371 -1.8242,-4.1584 2.6603,-12.159 6.6786,-6.6115 1.5979,5.3684 3.4911,10.031 5.0922,15.231 0.1535,2.7972 1.4505,1.8498 1.1976,-2.1581 0.24872,-5.785 -0.33833,-12.91 1.4158,-18.893 -3.1513,-5.2308 -1.5587,-12.157 -1.6205,-18.047 1.962,-6.293 0.69325,-13.852 7.0743,-17.951 4.1511,2.3233 6.6534,7.9638 7.2847,12.59 -0.74853,36.197 0.54583,72.611 -4.3901,108.56 -1.9258,4.2988 -4.5254,7.2598 -3.975,12.612 -2.0109,8.979 -1.7411,18.605 -4.2208,27.298 -3.7026,3.8907 0.91722,10.15 -2.982,14.968 -2.6446,3.8541 -7.1761,6.7078 -6.9706,11.963 -0.1952,5.5321 -6.9537,6.3926 -7.2286,11.886 49.403,-6.8e-4 98.862,0.0113 148.25,-0.006 -3.1643,-9.4077 3.561,-19.161 -0.28134,-28.57 -2.2693,-5.3737 -0.92335,-10.493 4.0919,-13.498 -0.36681,-5.5312 -3.359,-12.487 2.8145,-16.303 0.12309,-14.984 2.1506,-29.963 3.3458,-44.779 -4.0993,-12.537 0.39473,-25.929 0.85352,-38.764 -0.306,-4.5554 7.0416,-6.4827 6.8346,-1.0948 2.4352,2.8664 0.0767,10.97 3.371,10.433 5.0313,0.76149 2.6181,-6.8447 5.3562,-10.067 2.6264,-2.4194 9.4696,-12.474 9.1167,-3.4087 0.52059,5.5908 -2.6922,11.604 -7.0903,14.949 0.47116,2.9409 -2.6635,9.2901 2.457,6.7619 5.7086,-0.76482 5.2526,9.5768 2.7127,13.298 -3.1907,3.9116 -0.43081,7.0022 1.3325,10.589 -1.2546,4.2374 4.5734,4.1986 5.0222,0.21047 6.2227,-8.4429 8.3087,-18.665 10.004,-28.837 2.1939,-9.0617 -0.58521,-18.801 1.0837,-27.831 2.2109,-7.0024 0.516,-15.12 1.4578,-22.493 0.27233,-7.9553 -0.31604,-16.415 3.4108,-23.456 0.3342,-9.6563 -2.6371,-19.761 -2.4521,-29.728 -0.71472,-10.881 -0.007,-22.333 -5.9214,-31.972 -7.6506,-20.093 -11.781,-41.354 -13.624,-62.734 -3.8316,-4.8758 -1.1228,-12.628 -7.581,-15.25 -5.2346,-3.8025 -1.5399,-11.465 -2.3742,-17.089 -0.40772,-5.8308 0.99315,-11.63 2.1252,-16.962 -5.093,-5.1207 -5.0869,-12.341 -6.0148,-18.746 -1.3529,-4.5369 -4.8136,-9.2885 -9.9833,-9.2369 -9.8189,-4.348 -21.372,-7.3041 -28.274,-16.028 0.0902,-3.3975 1.6574,-8.5109 1.34,-11.069 -3.5351,2.5379 -8.8717,3.8237 -12.52,1.5508 0.46498,-5.5842 0.9804,-9.5213 0.83795,-15.117 1.5388,-4.304 3.7037,-9.4092 7.7969,-7.0254 3.206,-0.56155 7.7637,1.6395 10.18,0.83389 2.5259,-1.5065 -4.2322,-3.7636 -6.0198,-5.3575 -8.1276,-3.4588 -15.353,-11.38 -14.65,-20.895 -0.46263,-3.7752 1.6293,-10.168 -3.9562,-9.9726 -9.8434,-1.6819 -19.857,-0.46626 -29.811,-1.3891 z m 3.1836,43.576 c 2.6532,5.8842 -7.8766,1.4524 0,0 z m 19.412,1 c 7.0594,-1.391 -0.93195,6.1696 0,0 z m 77.014,272.27 c 6.5052,-1.1302 3.1548,9.566 2.2502,13.439 -3.5953,3.7586 -5.5492,-7.6784 -3.3112,-10.567 0.29066,-0.97748 0.72179,-1.9106 1.061,-2.8723 z m 3.2168,12.689 c -0.19408,2.125 -2.1793,3.6988 0,0 z m 6.5469,21.471 c 1.6406,3.8939 -0.87419,6.2541 0,0 z" style="fill:#2f2f2f;stroke-width:1.29960001" />
   <path inkscape:connector-curvature="0" id="path49" d="m 172.98,22.742 c 0.14858,6.3821 -5.3641,11.239 -4.9489,17.823 -0.77218,5.3504 -2.6219,11.04 -8.7476,11.873 -6.4606,3.0265 -13.849,6.9959 -19.446,10.26 1.2743,2.2469 6.1426,0.05313 8.0056,0.62721 4.2567,-1.4525 9.7792,0.3658 12.532,-3.3596 2.7081,2.6525 3.7544,4.5854 1.4452,7.2728 -2.7907,3.0559 4.6378,5.7684 1.504,9.9207 -1.8025,8.1266 -14.163,6.6088 -17.957,0.56622 -3.5804,-0.9968 -4.8423,1.241 -2.8245,4.4192 3.2422,6.8182 -0.79035,17.623 -9.6102,16.374 -6.2464,2.9298 -14.024,2.6273 -20.387,4.5488 -2.3715,5.5079 -0.29456,11.432 -2.5635,16.875 -5.3861,0.97399 -5.8335,8.3137 -7.6645,13.183 -2.3998,6.4927 -7.9798,11.7 -6.0181,19.174 0.71172,9.5031 -0.33181,18.805 -4.0801,27.62 -4.3039,18.11 -2.3249,37.021 -4.8073,55.433 0.41811,6.1426 -4.7555,12.578 -0.15365,17.96 1.1123,8.1034 -3.0117,15.486 -2.8887,23.623 -0.66665,7.3356 -3.2785,14.71 -1.2295,21.685 0.89347,23.783 0.3669,47.721 2.0831,71.411 0.73352,6.5831 1.8045,12.962 5.6054,18.496 4.1827,-4.029 10.932,0.40652 5.1623,-8.4207 -4.5264,-8.298 -4.2499,-18.119 -2.9182,-27.101 3.9713,-6.0503 9.3195,2.9279 8.4834,7.114 -0.53218,1.5972 5.3963,10.186 3.9598,4.8159 -0.30807,-5.9492 -0.14398,-12.476 0.11611,-17.799 -4.5957,-10.099 0.6279,-20.319 0.98743,-30.64 2.2521,-3.9351 8.9089,-8.0429 10.475,-1.3692 3.5112,4.7238 4.723,10.628 3.9079,16.709 -1.1893,34.491 -0.32658,69.234 -5.5438,103.42 -2.1092,11.436 -6.1662,22.257 -4.8619,33.997 1.7633,6.4869 -7.4664,5.064 -2.836,11.147 -2.3714,4.5369 -2.6187,9.5341 -6.5556,13.623 -4.4786,3.7955 0.0496,10.786 -6.4112,13.377 -2.848,1.5638 -4.201,6.1468 0.80077,4.3985 47.114,-0.003 94.239,0.005 141.35,-0.004 -1.6453,-3.8717 -4.0858,-9.6086 0.006,-12.955 0.43126,-8.5221 -2.8035,-17.578 -0.86524,-25.982 5.8016,-3.912 2.81,-6.3312 2.488,-11.048 5.0605,-7.3893 5.3185,-16.278 5.5762,-25.014 2.1106,-23.185 -0.93421,-46.798 4.4827,-69.585 2.6982,-7.0482 8.5859,-2.2058 9.6093,3.0953 -0.39676,4.3081 1.6761,11.093 4.423,4.9864 -0.71129,-6.4825 5.1201,-12.193 9.5058,-15.518 4.098,0.65483 2.4406,10.541 0.70211,13.78 -2.3488,3.2679 -6.4904,6.7453 -5.0112,10.787 7.2858,2.7372 7.4628,11.751 4.0001,17.43 -3.2403,4.4438 2.5508,8.4278 3.6134,12.742 4.9026,-6.9458 9.8737,-15.208 10.489,-24.288 2.4443,-8.3809 3.4523,-17.095 2.605,-25.59 -0.46754,-26.026 2.2822,-52.021 1.1686,-77.948 -1.2948,-11.131 -0.65008,-22.996 -3.163,-33.686 -2.7048,-3.1799 -3.7183,-7.3251 -4.545,-11.527 -4.6468,-9.0547 -7.0516,-20.977 -9.0147,-31.594 -2.7427,-12.503 -3.0096,-26.608 -10.298,-37.284 -3.9173,-6.3674 -0.81328,-15.206 -1.5189,-22.929 -0.23223,-5.6219 0.98051,-13.642 -0.03,-18.015 -4.3756,-5.8065 -3.2962,-14.995 -7.129,-20.613 -9.5302,-5.0971 -20.773,-8.7265 -29.103,-14.042 -5.4567,-2.4335 -5.8757,-7.4659 -4.1035,-12.704 1.9609,-5.6525 -5.6808,0.77451 -8.6865,-0.07243 -5.4204,0.35355 -7.7984,-7.3522 -2.543,-9.3908 -2.4969,-5.1889 0.12619,-11.017 1.7286,-16.389 5.5762,-3.4956 4.3292,2.1545 9.014,1.0879 2.7304,-0.27853 12.29,0.89855 4.6708,-1.613 -2.6414,-2.5974 -5.517,-1.9605 -6.7586,-4.8851 -5.2528,-0.44164 -9.4202,-7.1389 -11.085,-11.796 -1.2698,-5.2094 -1.0569,-11.487 -2.3446,-16.143 -10.438,-2.1242 -21.212,-1.5686 -31.842,-2.3507 z m 3.0449,43.41 c 7.0175,4.187 -8.0022,4.0519 -2.5815,0.77453 0.82264,-0.38004 1.715,-0.53125 2.5815,-0.77453 z m 19.045,0.52539 c 8.1126,-0.85723 -0.55782,8.0888 0,0.12826 z m 1.9492,4.5488 c 9.756,3.7212 -4.1095,6.4709 0,0 z m -0.21485,24.691 c 0.27753,7.732 1.757,15.884 1.1855,23.506 -3.2162,-7.292 -0.62791,-15.773 -1.1855,-23.506 z m -25.373,5.0508 c 1.9444,6.8036 -3.0933,11.094 -0.82105,2.3191 0.41765,-0.69356 0.20435,-1.7346 0.82105,-2.3191 z m -3.2891,28.811 c 6.2581,3.8226 -2.8333,6.3129 0,0 z m 90.006,2.5293 c 5.4488,-0.78083 -2.4897,6.1439 0,0 z m 14.9,205.34 c 7.1042,-1.9331 2.68,7.6405 3.864,11.49 1.2714,7.111 -6.7529,8.6236 -6.5675,1.0209 -0.89908,-4.5712 -1.2196,-9.2421 2.7034,-12.51 z m 9.4492,35.09 c 2.3342,4.4319 -0.81871,16.267 0,5.1992 z" style="fill:#232323;stroke-width:1.29960001" />
   <path inkscape:connector-curvature="0" id="path51" d="m 104.04,125.67 c -1.517,1.0727 -1.3952,3.3134 -2.024,4.9674 -0.92962,1.2494 -2.7409,1.5407 -4.041,2.4193 -1.3049,0.23033 -1.4209,1.3237 -0.03873,0.6648 0.97561,-1.0408 -0.46215,0.72266 0.7173,0.0767 0.79259,0.0569 3.5975,-1.1662 3.1432,0.0705 -1.2431,0.77502 0.0885,2.6791 0.3058,2.7009 -0.88185,1.3681 -3.1435,1.7653 -4.1407,0.45823 -1.7938,-0.91998 0.07185,1.9128 -0.79854,2.8152 -0.82807,1.8082 -3.4231,1.4787 -5.1219,1.9613 -2.0831,0.52773 0.08031,3.9339 -2.2779,4.3213 -0.42236,1.7951 -1.9296,3.5486 -1.7393,5.5449 0.04586,2.36 -0.44852,4.6408 -1.3134,6.83 -0.31068,4.0558 -0.49444,8.1537 -0.87959,12.216 -0.20379,1.7415 0.56401,3.5949 -0.28298,5.3993 -0.4714,1.8196 -0.3904,3.7369 -0.34449,5.612 0.12626,4.1902 0.23044,8.3811 0.32914,12.572 -0.36838,1.4276 0.14597,3.0099 0.51897,4.4018 0.18884,1.1845 0.94602,1.2958 1.9792,0.78976 -0.86797,-1.9674 -1.2736,-4.0484 -0.96092,-6.2066 0.47768,-2.0406 2.0804,0.61207 1.9821,1.6469 1.1188,1.439 0.25432,-2.223 0.4749,-3.1005 -0.72049,-1.9878 -0.05627,-4.3677 0.38275,-6.4248 0.8873,-1.849 2.3561,-0.94299 2.7116,0.66411 0.41252,1.829 0.08264,3.776 0.17671,5.6504 -0.07733,2.4338 0.10026,4.8919 -0.25781,7.2965 -0.01122,2.7588 -0.19931,5.5171 -0.28442,8.2758 -0.16355,1.8179 -1.1024,3.6258 -0.76317,5.5468 -1.0795,1.0124 -0.57196,3.4985 -0.77364,5.3335 -1.195,-0.0311 -0.40018,2.4266 -1.6425,3.0118 -0.19074,0.94018 -0.68638,1.5149 -0.78202,2.6911 -1.0521,0.79691 -1.5864,1.6271 0.13773,1.3088 9.234,0.002 18.468,1.2e-4 27.702,8.4e-4 -0.35118,-1.0792 -0.67827,-1.8894 -0.0149,-2.859 -0.20229,-1.6445 -0.17819,-3.3047 -0.10904,-4.9569 1.3831,-1.185 -1.0502,-2.3144 0.85182,-3.1215 0.79118,-1.3701 0.52009,-3.0873 0.77127,-4.6159 0.11813,-2.7408 0.68644,-5.5257 0.15738,-8.2329 0.209,-1.8482 0.73165,-3.6412 0.79114,-5.4988 0.44252,-2.2983 2.8937,-0.0572 2.3561,1.4794 1.0132,0.8703 0.0333,-2.1428 1.3738,-1.9672 0.42328,-0.93516 1.652,-2.4015 1.7144,-0.44672 0.56,1.6868 -1.5362,3.0378 -1.1388,4.3594 2.025,0.80975 0.42904,3.0444 0.65654,4.4477 0.35709,1.7903 1.2588,1.2617 1.7447,-0.16213 1.0633,-1.717 1.0662,-3.7883 1.5856,-5.6878 -0.3475,-0.72502 0.78812,-2.9437 -0.65197,-2.248 0.48267,-1.9158 0.94056,-3.8273 0.61907,-5.8214 -0.0366,-2.8351 0.0894,-5.6745 0.21048,-8.5 -0.18872,-2.7156 -0.28741,-5.441 -0.44771,-8.1603 -0.83043,-1.6371 -1.3104,-3.3446 -1.9978,-5.0477 -0.69891,-2.4092 -1.2957,-4.8702 -1.6507,-7.3501 -0.0349,-1.8854 -0.90156,-3.6384 -1.7743,-5.2483 -2.1052,-0.67746 0.55029,-2.0874 10e-4,-3.5238 -0.1635,-0.88905 0.57228,-3.5017 -0.11428,-3.3414 -1.0742,0.17828 -1.3028,-2.1464 -0.43634,-2.5223 -1.0659,-0.6768 0.0831,-2.943 -1.9581,-3.0606 -1.6334,-0.87073 -3.3935,-1.4902 -4.966,-2.3435 -1.701,-0.59477 0.44294,-4.1163 -1.8418,-2.6223 -1.2761,0.3199 -1.901,-0.97966 -2.4268,-1.6449 2.054,0.84947 0.8736,-2.1183 1.6322,-3.1192 0.095,-1.0808 1.5939,-0.51885 1.669,-0.24083 2.2189,-0.5695 -1.2198,-1.1992 -1.5799,-2.1965 -2.0733,-1.2653 0.26505,-5.4658 -2.9382,-5.0118 -1.395,-0.0661 -2.7883,-0.17116 -4.1828,-0.25082 z m 4.63,7.5712 c -0.56789,1.0106 -2.0996,-0.1798 -0.35923,0.0133 z m -5.8519,0.13241 c 1.1168,0.14361 3.8946,-0.22964 4.0444,0.23341 -1.1883,-7e-4 -3.2952,0.79817 -4.0444,-0.23341 z m 1.1814,1.0835 c 1.2886,1.3356 -2.5755,0.41044 0,0 z m 3.8983,0.10696 c 2.0373,-0.0199 -1.057,1.486 0,0 z m 0.27437,0.93125 c 1.211,-0.0377 1.26,1.1803 0.20509,1.3329 -0.7578,1.6649 -0.61747,-1.1795 -0.20509,-1.3329 z m -5.2829,0.28987 c 2.4868,0.27109 -1.1256,1.2936 0,0 z m 0.55071,3.2768 c 0.34675,2.2287 -0.772,4.5213 -0.44721,6.8461 0.0846,0.64308 -0.0756,3.8707 -0.58841,1.9821 0.39829,-1.5236 0.11149,-3.1354 0.31632,-4.7026 0.0578,-1.4011 0.25746,-2.7969 0.7193,-4.1255 z m 4.4574,0.34514 c 0.99854,1.2429 0.41901,3.1352 0.71063,4.6546 0.23343,3.7179 0.17033,7.4442 0.1079,11.166 -0.62934,-1.0416 -0.1354,-3.0534 -0.24084,-4.4693 -0.0946,-3.7858 -0.41513,-7.5664 -0.57769,-11.352 z m 12.679,7.3716 c -1.0541,0.5607 0.81613,1.5493 0.20269,0.0949 0,0 -0.20269,-0.0949 -0.20269,-0.0949 z m -17.685,2.0728 c 0.48423,0.83238 -0.21367,1.2528 0,0 z m 0.4183,1.4358 c 0.19854,1.0882 0.55678,3.4414 0.15084,3.7445 0.0347,-1.1956 -0.5857,-2.6989 -0.15084,-3.7445 z m 0.37576,4.1202 c 0.42201,0.90884 -0.23875,1.3311 0,0 z m 4.5282,2.9102 c 0.45055,0.9774 -0.12562,3.1571 0,1.1333 z m 0.21194,3.2641 c -0.038,0.92074 -0.55631,3.6858 -0.37531,1.3474 0.13951,-0.42396 -0.24145,-1.2119 0.37531,-1.3474 z m 15.367,29.001 c 1.1748,0.26542 1.0201,3.1728 0.10466,3.8567 -1.4864,-0.0838 -1.1581,-3.2431 -0.10466,-3.8567 z m -2.5874,4.1262 c 0.52846,1.3302 -1.7756,0.53813 0,0 z m 4.4475,2.8999 c 1.1112,0.46809 -0.37481,4.038 -0.0179,1.445 -0.0127,-0.47988 -0.0485,-0.97395 0.0179,-1.445 z" transform="matrix(4.9282,0,0,4.9282,-338,-596.75)" style="fill:#161616;stroke-width:0.26458001" />
   <path inkscape:connector-curvature="0" id="path53" d="m 105.1,125.93 c -1.044,-0.12047 -2.0671,0.30596 -1.7685,1.4963 -1.031,0.87933 -0.58469,2.7132 -1.294,3.7916 -0.90157,0.38999 -2.0618,1.1004 -2.4535,1.4896 -1.0341,-0.46709 -0.432,0.1702 -0.48715,0.65326 -0.59543,0.0472 -0.64558,-1.0525 -1.3691,-0.12217 -0.5404,0.44403 -1.1,0.89014 -0.10346,0.35427 0.51619,-0.27489 0.7537,-0.0937 0.49001,0.32122 1.796,-0.73045 3.6932,-0.91507 5.6369,-0.79073 2.6096,0.0277 5.187,-0.44764 7.78,-0.60014 1.1002,-1.2268 -1.9726,-1.8907 -1.477,-3.4567 -0.29695,-0.81823 0.29207,-2.4334 -0.81718,-2.4396 0.50147,-0.81259 -1.7517,-0.28043 -2.3335,-0.58743 -0.59982,-0.0549 -1.2011,-0.0988 -1.8035,-0.10951 z m 6.9804,6.1199 c 0.50825,1.316 1.0309,-0.38426 0,0 z m -11.252,0.27079 c 0.37336,0.55096 -1.3228,-0.0202 0,0 z m 10.223,1.1571 c -1.3675,0.0921 -2.7073,0.27249 -4.0618,0.46063 -1.1136,0.41926 -3.1019,-0.44332 -2.7667,1.2064 -0.46703,0.66788 -0.9944,-0.44732 -1.694,-0.32024 0.7145,-0.1865 0.64523,-0.70417 1.4334,-0.45475 -0.40032,-1.0829 -3.2426,-0.49601 -2.4165,1.0951 -0.13335,1.717 2.028,-1.3313 1.6996,0.22723 0.55089,0.13843 1.4336,-0.0486 0.66028,0.62606 1.0962,1.4508 -0.53261,3.2616 -0.28964,4.9142 -0.29524,2.1317 -0.62254,4.2744 -0.34344,6.4293 -0.028,2.1636 0.93214,4.2138 0.7145,6.3935 -0.22712,1.4827 0.53438,3.5715 -0.32117,4.6717 -1.2029,-0.16036 -0.23209,-2.3447 -0.55812,-3.2688 0.1056,-1.958 -0.10715,-3.9067 -0.71774,-5.7728 -0.45852,-1.2782 -0.16849,-2.5458 0.0631,-3.6884 -0.0577,-2.9004 0.5094,-5.7655 0.43384,-8.6664 0.0629,-1.5188 -0.89742,0.54706 -1.3734,0.0364 -0.95313,1.0315 -2.9136,1.1085 -3.6266,-0.27071 -0.09518,0.50814 0.31701,2.0141 -0.13229,0.57593 0.02498,-1.1215 -1.051,-0.92045 -0.44976,0.088 0.57543,1.6901 -0.36288,3.6932 -2.3758,3.5737 -1.4722,0.63845 -4.1766,0.17547 -3.7435,2.4472 0.23502,1.8506 -1.4604,2.2677 -1.8733,3.9218 -0.07783,1.6962 -1.9041,2.6733 -1.2699,4.513 0.09914,1.5169 0.03401,3.0305 -0.43366,4.4872 -0.72371,1.4259 -0.9761,2.9101 -1.0487,4.5034 -0.09438,2.5056 0.06572,5.0294 -0.05201,7.5417 -1.556,1.8472 0.41188,3.6653 -0.18311,5.6723 -0.7447,1.5836 -0.64868,3.4197 -0.96801,5.1278 -0.14636,1.5135 0.04102,2.9313 0.57561,4.0889 0.05619,0.71791 -0.0058,1.361 -0.57718,1.5636 0.08941,3.879 0.17686,7.758 0.28359,11.636 -0.04844,1.218 1.2453,1.5354 0.94241,2.6107 0.69576,0.063 2.0656,0.009 1.0769,-0.94968 -1.0601,-1.8126 -0.56321,-3.9255 -0.55353,-5.9005 1.9857,-0.98969 1.5648,2.5313 2.4439,2.8569 0.41947,-1.2851 -0.87226,-2.2445 -0.0011,-3.3312 -0.96186,-0.99501 -0.29775,-2.6821 -0.33141,-3.9744 0.35128,-1.0598 0.42603,-2.8246 0.78318,-3.4171 0.85019,-0.2619 2.0967,-1.7868 2.1847,-0.009 1.1489,1.4261 0.74569,3.2762 0.81362,5.0335 0.01739,2.7661 0.03714,5.5322 0.02639,8.2983 -1.2009,0.91735 0.77346,2.3247 -0.49876,3.3677 0.12628,2.3061 0.19634,4.656 0.11223,6.9816 -0.06295,1.5831 -1.6122,2.6844 -0.62385,4.3061 0.29016,1.4854 2.5868,2.8936 1.1422,4.2226 -1.0107,1.4283 -3.2865,1.901 -3.2615,3.8799 -1.1799,0.41552 -0.23737,2.2824 -0.9541,3.2597 -1.0805,1.3877 0.69642,1.1222 1.6172,1.1118 h 25.207 c 0.25729,-2.0854 -2.4662,0.16805 -2.3071,-1.7833 -0.33229,-1.5281 0.84028,-2.7355 1.3988,-4.0463 0.43629,-0.82205 0.56191,-1.952 0.91609,-2.5906 -0.44055,-1.1161 -1.2643,0.61115 -1.0037,-0.86121 -0.55574,-1.938 2.4433,-1.8787 2.3687,-3.7981 -0.0914,-2.8171 0.15722,-5.6234 0.54182,-8.4113 -0.86692,-2.0024 -0.13225,-4.1837 0.26759,-6.207 -0.78025,-0.97981 0.79446,-1.5046 0.35512,-2.3844 1.0159,-0.986 1.8907,-1.4391 3.1845,-1.9012 0.6091,-0.61236 0.78857,0.51598 -0.0319,0.38135 0.58395,0.7921 0.22472,1.722 -0.72194,1.5992 -0.38262,0.85724 2.0953,0.12647 1.6285,-0.85002 0.97773,-1.4426 0.12906,-3.3906 0.82339,-4.9918 -0.42894,-0.84071 1.1235,-0.57146 0.69519,0.0418 1.574,-0.48395 0.76002,2.3861 0.72039,3.2913 -0.3324,1.8393 -0.14382,3.9172 -1.4217,5.4332 -0.87284,1.4435 2.0627,2.436 0.78944,4.0473 -0.61423,1.1967 1.0633,-0.6792 0.44984,0.59963 -0.51113,-0.11736 -1.4664,0.73011 -0.48408,0.74393 -0.49199,1.2155 1.1658,1.6006 1.1517,0.21725 -0.12243,-0.99266 1.1526,-1.1972 0.97411,-2.4022 -0.054,-0.61813 0.51296,-2.3732 0.0865,-2.4504 -1.0104,1.703 -0.32641,-1.1337 -0.39457,-1.782 0.31391,-1.1374 -0.0809,-3.1208 0.59916,-3.5413 0.70746,-0.21659 -0.0417,-2.231 0.27277,-3.1772 -0.14765,-1.2648 -0.40018,-2.576 -0.21803,-3.8783 0.11673,-1.0621 -1.1177,-0.62255 -0.73435,-1.7147 -0.40246,-1.5962 1.6452,-2.3498 0.9076,-4.0434 -0.0704,-2.0696 -0.169,-4.1381 -0.24708,-6.2074 -0.26084,-0.70132 -0.90037,1.0042 -0.56031,-0.13697 0.92142,-0.37215 0.70581,-1.0739 -0.0436,-1.008 0.70512,-1.6329 -1.4244,-2.2182 -1.1345,-3.8574 -0.72218,-1.1533 -0.5935,-2.8949 -1.5322,-3.786 -0.30016,-1.9682 -0.38485,-4.001 -0.62493,-5.9929 -1.0413,-0.85333 -0.39305,-2.8006 -2.0297,-3.3129 -1.0863,-0.89564 -0.218,-2.6335 -0.21867,-3.8572 1.4792,-1.1648 0.35179,-3.2918 -0.56001,-4.4807 0.35047,-1.1073 -0.65705,-2.0362 0.33544,-2.9866 0.22733,-1.6095 -1.4657,-1.222 -2.3338,-1.6562 -0.16722,-1.1908 -1.8424,-1.5122 -2.8809,-1.8461 -0.47134,-0.78394 -2.2372,-1.1803 -2.1413,-2.445 1.1827,-1.899 -2.1583,-0.19982 -2.8882,-1.2312 -0.3285,-0.5159 -1.2508,-1.2339 -1.0267,-0.0746 1.1058,0.27653 -0.68919,0.84893 -0.0743,1.6915 0.20429,5.9719 0.39115,11.945 0.33584,17.921 2.8e-4,0.62136 5.6e-4,1.2427 8.4e-4,1.8641 -0.70387,1.2778 -0.16924,2.8769 -0.32428,4.2937 0.005,1.3809 0.0101,2.7619 0.0154,4.1428 -1.8426,-0.87389 -1.2634,-3.4954 -1.1253,-5.1586 0.3172,-2.1177 0.5304,-4.2632 0.4497,-6.4113 0.0915,-2.8178 0.39212,-5.6367 0.0989,-8.4533 -0.16731,-2.9332 0.0588,-5.8797 -0.35232,-8.7998 -0.29328,-0.96882 0.0125,-2.9718 -0.18754,-3.1457 -1.2454,0.1399 1.1906,-1.8994 -0.20573,-1.1321 -0.4487,0.88483 -0.97593,0.82801 -0.63118,-0.23763 0.88488,-0.19196 2.9458,-0.52635 2.3127,1.1089 0.74022,0.91006 0.26511,-1.365 0.87356,-0.0915 -0.62606,0.54459 0.0287,1.5531 0.51001,0.71123 0.24253,-0.88021 -0.93109,-2.2406 0.6467,-2.252 l 0.0305,-0.17575 -0.0142,-0.2426 z m -13.431,5.6014 c 0.20071,0.22891 -0.10252,0.43646 0,0 z m -2.6653,2.3635 c 0.57828,0.97312 -0.29198,1.3604 0,0 z m 28.632,26.602 c 0.54848,1.0531 -0.46997,0.90892 0,0 z m -37.099,1.9734 c 0.59047,0.97298 -0.29684,1.357 0,0 z m 4.3719,11.029 c 1.1051,0.26545 -0.02344,1.4503 0.78858,1.7895 -1.1279,0.31853 -2.4253,-1.5646 -0.78858,-1.7895 z m 34.781,6.5728 c 0.63313,0.41863 -0.29965,1.336 0,0 z m -32.243,5.6813 c 0.44112,0.67493 -0.09224,3.1973 0,1.3568 z m 32.786,4.1011 c -0.0386,0.70813 0.68081,1.4847 0.49366,0.24918 0.06,-0.27387 -0.32396,-0.3477 -0.49366,-0.24918 z m -34.446,16.631 c -1.0342,0.45559 -1.1399,2.7821 -0.44336,3.0832 1.6861,-0.63289 0.43046,-1.9838 0.44336,-3.0832 z" transform="matrix(4.9282,0,0,4.9282,-338,-596.75)" style="fill:#0a0a0a;stroke-width:0.26458001" />
  </g>
 </g></g></g>

</svg>